<?xml version="1.0" encoding="UTF-8"?>
<svg version="1.1" xmlns="http://www.w3.org/2000/svg" width="785" height="312">
<path d="M0 0 C0.72461426 0.08540039 1.44922852 0.17080078 2.19580078 0.25878906 C8.12464541 0.97615816 13.48069022 1.67699937 19 4 C20.82891939 4.55638813 22.66281026 5.09656102 24.5 5.625 C61.75513684 17.11060833 93.38007152 37.44292496 123.82861328 61.30322266 C125.74899684 62.80385969 127.67992194 64.28814049 129.62109375 65.76171875 C141.89999504 75.08384004 153.74694158 84.95015753 165.63476562 94.76196289 C170.48573611 98.76312427 175.36179823 102.73195441 180.25 106.6875 C185.09403895 110.60774266 189.8870673 114.57724714 194.625 118.625 C200.69554885 123.80361852 206.9429045 128.73382055 213.24267578 133.62939453 C214.979071 134.98367666 216.70759644 136.34734174 218.43359375 137.71484375 C227.17268885 144.63500357 236.03934397 151.36953821 245 158 C245.65323242 158.48629883 246.30646484 158.97259766 246.97949219 159.47363281 C273.69504532 179.31608652 301.78089899 197.09549641 331 213 C331.63711914 213.3501416 332.27423828 213.7002832 332.93066406 214.06103516 C343.41076354 219.81875665 354.13895295 225.00158265 365 230 C365.8137207 230.38091797 366.62744141 230.76183594 367.46582031 231.15429688 C368.26342773 231.52103516 369.06103516 231.88777344 369.8828125 232.265625 C370.60098145 232.59852539 371.31915039 232.93142578 372.05908203 233.27441406 C374.12299193 234.17508388 374.12299193 234.17508388 377 234 C377 234.66 377 235.32 377 236 C377.680625 236.15855469 378.36125 236.31710938 379.0625 236.48046875 C384.29483503 237.73984726 389.4386103 239.11079582 394.55151367 240.796875 C404.54385236 244.08216465 414.65801301 246.14015773 425 248 C426.15242187 248.2165625 427.30484375 248.433125 428.4921875 248.65625 C434.88853936 249.7629979 441.27659978 250.30486988 447.75 250.6875 C448.53060791 250.73608154 449.31121582 250.78466309 450.11547852 250.8347168 C454.84805003 251.06966716 459.30338133 250.80557861 464.00048828 250.20678711 C467.76488492 249.81747771 471.27246331 250.46749476 475 251 C475.33 250.34 475.66 249.68 476 249 C477.94140625 248.76171875 477.94140625 248.76171875 480.5625 248.6875 C495.09216302 247.62666411 510.11816614 241.25127351 522 233 C522.33 232.34 522.66 231.68 523 231 C522.05382812 231.44730469 521.10765625 231.89460937 520.1328125 232.35546875 C478.8667585 251.39849546 431.7337296 249.42247663 389.51269531 234.10791016 C385.29988102 232.49994748 381.14160846 230.78269234 377 229 C375.72672852 228.45424316 375.72672852 228.45424316 374.42773438 227.89746094 C368.57068743 225.36498121 362.77250683 222.71912334 357 220 C355.80745605 219.4416748 355.80745605 219.4416748 354.59082031 218.87207031 C352.32425159 217.80385267 350.06681465 216.71880645 347.8125 215.625 C347.13469482 215.30337891 346.45688965 214.98175781 345.75854492 214.65039062 C344.13175894 213.84413546 342.55929083 212.9301033 341 212 C340.67 211.01 340.34 210.02 340 209 C340.57322998 209.17595703 341.14645996 209.35191406 341.73706055 209.53320312 C382.0291719 221.77465371 425.58142144 230.58585967 464.875 210.1875 C470.34841475 207.25004665 474.92806641 203.8617247 479.36328125 199.46875 C481 198 481 198 483 198 C483.27585937 197.39671875 483.55171875 196.7934375 483.8359375 196.171875 C485 194 485 194 487.625 191.25 C496.75665387 180.83946586 502.1463293 165.65873125 503 152 C503.06445312 151.154375 503.12890625 150.30875 503.1953125 149.4375 C504.03801944 128.76308963 494.93263658 108.03244557 481.078125 92.9921875 C458.63281895 71.4750708 428.88254999 64.69105208 398.53222656 65.02734375 C390.07611305 65.26137538 381.79128486 65.95468106 373.48046875 67.59765625 C370.94342196 68.00917723 368.56546578 68.06908795 366 68 C365.67 68.66 365.34 69.32 365 70 C363.02 69.67 361.04 69.34 359 69 C375.86653495 57.75564336 398.16060585 51.34981447 418 48 C419.09441406 47.79632813 420.18882812 47.59265625 421.31640625 47.3828125 C430.71973437 45.90181368 440.12271215 45.78882173 449.625 45.75 C450.92300537 45.74073486 452.22101074 45.73146973 453.55834961 45.72192383 C466.22439515 45.76282602 478.09112751 47.25259286 490.125 51.25 C491.54365356 51.71297485 491.54365356 51.71297485 492.9909668 52.18530273 C506.93250284 56.85404605 520.09640553 63.9985942 531 74 C531 74.66 531 75.32 531 76 C531.9590625 76.4021875 531.9590625 76.4021875 532.9375 76.8125 C535 78 535 78 536 81 C536.66 81 537.32 81 538 81 C555.82065868 101.3703837 564.44057605 125.74822843 564.3125 152.75 C564.30758545 153.98065186 564.3026709 155.21130371 564.29760742 156.47924805 C564.17926132 165.68778832 563.44540978 174.10940089 561 183 C560.67128906 184.21945313 560.34257813 185.43890625 560.00390625 186.6953125 C554.09839226 206.27137618 542.91883665 222.22898968 529 237 C528.43925781 237.61359375 527.87851562 238.2271875 527.30078125 238.859375 C498.48164254 269.28345364 454.97991738 278.63858423 414.81417847 279.8739624 C360.92383338 281.25574506 311.8388847 265.26170245 267 236 C266.3714209 235.59281738 265.7428418 235.18563477 265.09521484 234.76611328 C252.06628711 226.30720862 239.66729918 217.03313251 227.26416016 207.69189453 C223.62441932 204.95397428 219.96995133 202.23852867 216.29296875 199.55078125 C208.22721057 193.654664 200.25829432 187.6946182 192.49633789 181.40283203 C187.37440465 177.26251643 182.13271289 173.30002042 176.85009766 169.36767578 C172.59724577 166.20172166 168.37913629 162.99649416 164.1875 159.75 C159.57372245 156.18534656 154.91234049 152.69851281 150.1796875 149.29296875 C147.57125334 147.41194805 144.97508737 145.51641078 142.3828125 143.61328125 C140.73444353 142.40876037 139.08600578 141.20433363 137.4375 140 C136.23927612 139.11671021 136.23927612 139.11671021 135.0168457 138.21557617 C134.26749756 137.67006104 133.51814941 137.1245459 132.74609375 136.5625 C132.07247803 136.06878906 131.3988623 135.57507813 130.70483398 135.06640625 C129.05254829 133.8232282 129.05254829 133.8232282 127 134 C125.8448855 132.83845629 124.69306213 131.67347292 123.55712891 130.49316406 C120.54480117 127.60457886 117.08472816 125.28547989 113.6875 122.875 C112.89279297 122.306604 112.09808594 121.73820801 111.27929688 121.15258789 C103.58730975 115.66891091 95.82549968 110.2911049 88 105 C87.278125 104.51144531 86.55625 104.02289063 85.8125 103.51953125 C76.00180516 96.89390574 66.09908686 90.4478118 56.01416016 84.24755859 C53.98235789 82.98907259 51.96518316 81.70945708 49.94921875 80.42578125 C32.35591044 69.31937968 13.67381146 58.90800497 -6 52 C-7.11761719 51.5771875 -8.23523438 51.154375 -9.38671875 50.71875 C-28.90526682 43.67575356 -49.21955754 40.76588507 -69.875 40.75 C-70.66034119 40.74932526 -71.44568237 40.74865051 -72.25482178 40.74795532 C-83.78081123 40.76370805 -94.77316892 41.17326475 -106 44 C-106.6801416 44.16097168 -107.3602832 44.32194336 -108.06103516 44.48779297 C-130.92738071 49.98395222 -150.33136028 61.57154241 -167 78 C-168.09441406 79.07507813 -168.09441406 79.07507813 -169.2109375 80.171875 C-176.30116848 87.62642615 -182.48850248 97.31565946 -186 107 C-186.99 106.67 -187.98 106.34 -189 106 C-176.86408765 66.28246868 -151.46848683 36.94999602 -114.8125 17.3125 C-78.98432473 -1.30546517 -39.56483111 -4.72391497 0 0 Z M526 228 C525.67 228.66 525.34 229.32 525 230 C525.99 229.67 526.98 229.34 528 229 C527.34 228.67 526.68 228.34 526 228 Z " fill="#007CD3" transform="translate(204,17)"/>
<path d="M0 0 C1.77117187 0.02513672 1.77117187 0.02513672 3.578125 0.05078125 C28.25314259 1.0189714 52.65864845 8.78534409 74 21 C74 21.33 74 21.66 74 22 C68.66282455 21.5421836 63.41362278 20.91265195 58.13671875 19.984375 C50.42836828 18.78991611 42.78088848 18.60377449 35 18.625 C34.28066284 18.62521149 33.56132568 18.62542297 32.82019043 18.62564087 C6.30058987 18.70312129 -18.73724865 24.93972162 -39 43 C-40.15628906 44.01513672 -40.15628906 44.01513672 -41.3359375 45.05078125 C-53.47351949 56.38057194 -61.55274427 72.80051397 -62.23828125 89.51953125 C-62.69279021 111.00781786 -58.08561943 129.83891252 -43 146 C-40.46167707 148.52293915 -37.8175537 150.79518567 -35 153 C-34.28585938 153.57363281 -33.57171875 154.14726562 -32.8359375 154.73828125 C-8.47150098 173.11346665 25.76733594 175.78031145 55.078125 171.81640625 C103.0561339 164.37803204 145.26145557 139.74037038 185.76171875 114.3203125 C186.68001465 113.74571289 187.59831055 113.17111328 188.54443359 112.57910156 C190.57165473 111.27545608 192.51232176 109.91282974 194.45703125 108.4921875 C197 107 197 107 199.0859375 107.0546875 C201.44691335 108.22072047 203.49286666 109.57625168 205.625 111.125 C206.51574219 111.76566406 207.40648437 112.40632813 208.32421875 113.06640625 C209.20722656 113.70449219 210.09023438 114.34257812 211 115 C212.47785656 116.02272905 213.95703711 117.04354743 215.4375 118.0625 C220.65766564 121.71828908 225.79891987 125.48087385 230.9375 129.25 C232.20001587 130.17244507 232.20001587 130.17244507 233.48803711 131.11352539 C234.2847583 131.69996826 235.08147949 132.28641113 235.90234375 132.890625 C236.61898193 133.41688477 237.33562012 133.94314453 238.07397461 134.48535156 C239.85920356 135.88927607 241.4351271 137.35742095 243 139 C239.06019027 142.10370863 235.11623718 145.20206519 231.16943359 148.296875 C229.70508197 149.44647177 228.24189212 150.59754973 226.77978516 151.75 C217.38893339 159.15069718 207.96574473 166.38164121 198 173 C197.20029785 173.53705566 196.4005957 174.07411133 195.57666016 174.62744141 C148.3059741 206.32195019 98.59733673 229.05808891 41 231 C40.32807617 231.02336426 39.65615234 231.04672852 38.96386719 231.07080078 C-8.06802243 232.4568322 -53.31343734 220.33342466 -88.08203125 187.75 C-88.57654785 187.28335938 -89.07106445 186.81671875 -89.58056641 186.3359375 C-90.86097998 185.13084237 -92.15434749 183.93954681 -93.44921875 182.75 C-113.80782404 163.42176043 -124.01894145 135.97117999 -124.9609375 108.3359375 C-125.45353426 79.48234423 -114.60384392 53.03018549 -94.6875 32.1875 C-68.80672846 7.43197939 -34.84810057 -0.69532595 0 0 Z " fill="#002BAA" transform="translate(141,64)"/>
<path d="M0 0 C1.29800537 -0.00926514 2.59601074 -0.01853027 3.93334961 -0.02807617 C16.59939515 0.01282602 28.46612751 1.50259286 40.5 5.5 C41.91865356 5.96297485 41.91865356 5.96297485 43.3659668 6.43530273 C57.30750284 11.10404605 70.47140553 18.2485942 81.375 28.25 C81.375 28.91 81.375 29.57 81.375 30.25 C82.014375 30.518125 82.65375 30.78625 83.3125 31.0625 C85.375 32.25 85.375 32.25 86.375 35.25 C87.035 35.25 87.695 35.25 88.375 35.25 C106.19565868 55.6203837 114.81557605 79.99822843 114.6875 107 C114.68012817 108.84597778 114.68012817 108.84597778 114.67260742 110.72924805 C114.55426132 119.93778832 113.82040978 128.35940089 111.375 137.25 C110.88193359 139.07917969 110.88193359 139.07917969 110.37890625 140.9453125 C104.47339226 160.52137618 93.29383665 176.47898968 79.375 191.25 C78.81425781 191.86359375 78.25351562 192.4771875 77.67578125 193.109375 C48.24626811 224.17781986 4.12767013 232.90225553 -36.75341797 234.1862793 C-49.78339499 234.44803863 -62.66360045 233.55139651 -75.625 232.25 C-75.625 231.92 -75.625 231.59 -75.625 231.25 C-71.07224646 230.03051244 -66.76772956 230.35649058 -62.125 230.6875 C-35.69201901 232.35644511 -35.69201901 232.35644511 -9.58447266 228.73022461 C-7.625 228.25 -7.625 228.25 -4.46484375 228.03125 C21.77873817 226.13982067 49.30541642 214.26169607 69.375 197.25 C69.705 196.59 70.035 195.93 70.375 195.25 C71.035 195.25 71.695 195.25 72.375 195.25 C72.705 193.6 73.035 191.95 73.375 190.25 C72.82714844 190.60191406 72.27929688 190.95382813 71.71484375 191.31640625 C50.64020765 204.44093572 50.64020765 204.44093572 39.375 204.25 C38.715 203.59 38.055 202.93 37.375 202.25 C38.42558594 201.93546875 39.47617187 201.6209375 40.55859375 201.296875 C51.91283168 197.85541766 62.53026762 194.08661971 72.375 187.25 C72.705 186.59 73.035 185.93 73.375 185.25 C72.42882812 185.69730469 71.48265625 186.14460937 70.5078125 186.60546875 C29.2417585 205.64849546 -17.8912704 203.67247663 -60.11230469 188.35791016 C-64.32511898 186.74994748 -68.48339154 185.03269234 -72.625 183.25 C-73.89827148 182.70424316 -73.89827148 182.70424316 -75.19726562 182.14746094 C-81.05431257 179.61498121 -86.85249317 176.96912334 -92.625 174.25 C-93.4200293 173.8777832 -94.21505859 173.50556641 -95.03417969 173.12207031 C-97.30074841 172.05385267 -99.55818535 170.96880645 -101.8125 169.875 C-102.49030518 169.55337891 -103.16811035 169.23175781 -103.86645508 168.90039062 C-105.49324106 168.09413546 -107.06570917 167.1801033 -108.625 166.25 C-108.955 165.26 -109.285 164.27 -109.625 163.25 C-109.05177002 163.42595703 -108.47854004 163.60191406 -107.88793945 163.78320312 C-67.5958281 176.02465371 -24.04357856 184.83585967 15.25 164.4375 C20.72341475 161.50004665 25.30306641 158.1117247 29.73828125 153.71875 C31.375 152.25 31.375 152.25 33.375 152.25 C33.65085937 151.64671875 33.92671875 151.0434375 34.2109375 150.421875 C35.375 148.25 35.375 148.25 38 145.5 C47.13165387 135.08946586 52.5213293 119.90873125 53.375 106.25 C53.43945312 105.404375 53.50390625 104.55875 53.5703125 103.6875 C54.41301944 83.01308963 45.30763658 62.28244557 31.453125 47.2421875 C9.00781895 25.7250708 -20.74245001 18.94105208 -51.09277344 19.27734375 C-59.54888695 19.51137538 -67.83371514 20.20468106 -76.14453125 21.84765625 C-78.68157804 22.25917723 -81.05953422 22.31908795 -83.625 22.25 C-83.955 22.91 -84.285 23.57 -84.625 24.25 C-86.605 23.92 -88.585 23.59 -90.625 23.25 C-73.75846505 12.00564336 -51.46439415 5.59981447 -31.625 2.25 C-30.53058594 2.04632813 -29.43617188 1.84265625 -28.30859375 1.6328125 C-18.90526563 0.15181368 -9.50228785 0.03882173 0 0 Z M76.375 182.25 C76.045 182.91 75.715 183.57 75.375 184.25 C76.365 183.92 77.355 183.59 78.375 183.25 C77.715 182.92 77.055 182.59 76.375 182.25 Z " fill="#00A2C5" transform="translate(653.625,62.75)"/>
<path d="M0 0 C2.59132663 0.6340191 5.18508852 1.16687896 7.80175781 1.68359375 C11.20379566 2.42705273 13.07806243 3.46102553 15.79394531 5.68359375 C18.74661458 7.18060319 21.77773421 8.50760509 24.79394531 9.87109375 C32.64574456 13.51871582 39.82915988 17.50005926 46.79394531 22.68359375 C47.61838135 23.29025879 47.61838135 23.29025879 48.45947266 23.90917969 C72.07372962 41.39781023 94.58812446 67.13206586 100.79394531 96.68359375 C100.79394531 97.67359375 100.79394531 98.66359375 100.79394531 99.68359375 C101.45394531 100.01359375 102.11394531 100.34359375 102.79394531 100.68359375 C102.79394531 101.34359375 102.79394531 102.00359375 102.79394531 102.68359375 C101.80394531 102.68359375 100.81394531 102.68359375 99.79394531 102.68359375 C99.26027344 101.60722656 98.72660156 100.53085938 98.17675781 99.421875 C83.83144829 71.06714296 61.8333523 51.03768614 31.64160156 40.77734375 C-21.04647924 24.9779728 -76.72749687 39.35515486 -123.86572266 64.62939453 C-138.29407457 72.47137471 -152.29260655 81.01060306 -165.9296875 90.15869141 C-168.18884435 91.67206482 -170.45756522 93.16994336 -172.72949219 94.6640625 C-180.63140893 99.87382458 -188.44774884 105.19984305 -196.20605469 110.62109375 C-197.03234375 111.19794922 -197.85863281 111.77480469 -198.70996094 112.36914062 C-202.96219791 115.35369193 -207.17030957 118.3850779 -211.33105469 121.49609375 C-212.15089844 122.10461182 -212.97074219 122.71312988 -213.81542969 123.34008789 C-215.37587463 124.502613 -216.92840701 125.67585722 -218.47167969 126.86108398 C-219.16777344 127.37872314 -219.86386719 127.8963623 -220.58105469 128.4296875 C-221.18691406 128.89044678 -221.79277344 129.35120605 -222.41699219 129.82592773 C-224.20605469 130.68359375 -224.20605469 130.68359375 -226.23120117 130.46386719 C-229.64566204 129.11479846 -232.39243633 126.73091306 -235.26855469 124.49609375 C-236.68974748 123.41056459 -238.11165487 122.32597052 -239.53417969 121.2421875 C-240.28634766 120.66710449 -241.03851563 120.09202148 -241.81347656 119.49951172 C-246.01660385 116.30942388 -250.26821677 113.18533999 -254.51855469 110.05859375 C-255.33654541 109.4550708 -256.15453613 108.85154785 -256.99731445 108.22973633 C-260.03705868 105.99091724 -263.06418445 103.77817391 -266.20605469 101.68359375 C-265.09662846 94.46428392 -256.74861918 88.90650003 -251.20605469 84.68359375 C-250.54605469 84.68359375 -249.88605469 84.68359375 -249.20605469 84.68359375 C-249.20605469 84.02359375 -249.20605469 83.36359375 -249.20605469 82.68359375 C-247.26273183 81.02052823 -245.30854395 79.47095324 -243.26855469 77.93359375 C-238.44920707 74.23545683 -233.71090999 70.46939392 -229.05541992 66.56665039 C-209.60335098 50.27704131 -188.580409 36.38201764 -166.47900391 23.96386719 C-165.03648269 23.15134503 -163.59753528 22.33241855 -162.16357422 21.50488281 C-112.46851916 -7.13715592 -55.20097943 -14.0412376 0 0 Z " fill="#009CCD" transform="translate(667.2060546875,22.31640625)"/>
<path d="M0 0 C-2.40638015 2.40638015 -3.43010282 2.40546256 -6.7421875 2.859375 C-8.20374268 3.07388306 -8.20374268 3.07388306 -9.69482422 3.29272461 C-10.74428223 3.44362549 -11.79374023 3.59452637 -12.875 3.75 C-27.021829 5.95002825 -41.28587145 8.9229611 -53.921875 15.92578125 C-56.06913979 17.03573955 -58.11848095 17.7060522 -60.4375 18.375 C-66.93795779 20.3991639 -73.28981546 24.22257805 -78.046875 29.09765625 C-80.12996168 31.12658268 -81.76260125 31.91741029 -84.4375 33 C-93.95582557 37.54795733 -101.77305279 46.12513763 -108.453125 54.14453125 C-109.53428212 55.44137376 -110.6524924 56.70781241 -111.796875 57.94921875 C-116.74384859 63.32958105 -120.67367204 69.02101612 -123 76 C-124.5625 77.6875 -124.5625 77.6875 -126 79 C-122.83884224 77.63016497 -122.0072908 77.0109362 -120 74 C-119.21625 73.54625 -118.4325 73.0925 -117.625 72.625 C-114.86773783 71.12093294 -114.86773783 71.12093294 -113 68.5 C-110.88364163 65.85455204 -108.91513046 64.65453351 -106 63 C-105.505 62.01 -105.505 62.01 -105 61 C-103.68 61 -102.36 61 -101 61 C-101 60.34 -101 59.68 -101 59 C-99.54462432 58.16151196 -98.08559627 57.32936066 -96.625 56.5 C-95.81289062 56.0359375 -95.00078125 55.571875 -94.1640625 55.09375 C-92 54 -92 54 -90 54 C-90 53.34 -90 52.68 -90 52 C-51.46876367 35.98126514 -9.22744367 31.05431983 31 45 C32.64739576 45.5409433 34.29586552 46.07862516 35.9453125 46.61328125 C46.46193732 50.05448255 56.79324965 53.71974985 67 58 C67 58.66 67 59.32 67 60 C67.86334961 60.26337158 68.72669922 60.52674316 69.61621094 60.7980957 C74.87421793 62.66571247 79.58030931 65.45480725 84.43896484 68.17504883 C86.22718248 69.17474397 88.02133095 70.16307455 89.81640625 71.15039062 C96.07735447 74.62163215 102.07894115 78.27337316 107.8503418 82.51757812 C110.01891354 84.01304293 112.18959597 85.17446661 114.5625 86.3125 C118 88 118 88 119 90 C120.28281511 90.78020873 121.6026369 91.50012762 122.9375 92.1875 C127.28346862 94.53500746 131.26527014 97.18915135 135.28125 100.05859375 C138.24819678 102.17723247 141.24662386 104.24585647 144.25 106.3125 C147.79732664 108.75733604 151.32086587 111.22193823 154.80078125 113.76171875 C155.42887695 114.21828857 156.05697266 114.6748584 156.70410156 115.14526367 C157.91698175 116.02942974 159.12616196 116.91870031 160.33105469 117.8137207 C163.22906866 119.92294366 165.55161896 121.15616087 169 122 C169.33 122.99 169.66 123.98 170 125 C172.60642779 126.99671712 172.60642779 126.99671712 175.75 128.9375 C178.86721968 130.92991012 181.86134676 132.88856461 184.74609375 135.20703125 C186.93685895 136.94977168 188.26956799 137.59549155 191 138 C191 138.66 191 139.32 191 140 C191.66 140 192.32 140 193 140 C194.17418663 141.16780518 195.34427644 142.34004851 196.4921875 143.53369141 C199.25423859 146.21971453 202.39754063 148.41390497 205.5 150.6875 C206.9237536 151.74140911 208.34692187 152.79610937 209.76953125 153.8515625 C210.83228271 154.63901855 210.83228271 154.63901855 211.91650391 155.44238281 C216.06885791 158.54667372 220.14617952 161.74842533 224.23046875 164.94140625 C228.68653436 168.57560118 228.68653436 168.57560118 234 170 C234.39155273 170.90540527 234.39155273 170.90540527 234.79101562 171.82910156 C236.09095912 174.16332967 237.19637306 175.18245988 239.34375 176.734375 C240.00834229 177.22220459 240.67293457 177.71003418 241.35766602 178.21264648 C242.41812134 178.97363647 242.41812134 178.97363647 243.5 179.75 C244.95797264 180.81772614 246.41500528 181.88673704 247.87109375 182.95703125 C248.57991699 183.47604004 249.28874023 183.99504883 250.01904297 184.52978516 C252.5864404 186.43524083 255.07997866 188.42308933 257.5625 190.4375 C261.27846032 193.44925126 265.07368513 196.26865053 269 199 C268.34 199.66 267.68 200.32 267 201 C258.36204609 194.41766043 249.7445765 187.81223914 241.1875 181.125 C232.33258138 174.21422108 223.35437905 167.47419945 214.3515625 160.7578125 C212.16764408 159.12531534 209.9887931 157.48639268 207.8125 155.84375 C200.62585665 150.42116501 193.3988117 145.05517808 186.125 139.75 C185.34495605 139.17620605 184.56491211 138.60241211 183.76123047 138.01123047 C183.03822754 137.48674316 182.31522461 136.96225586 181.5703125 136.421875 C180.92852051 135.95362305 180.28672852 135.48537109 179.62548828 135.00292969 C178.03465136 133.82496816 178.03465136 133.82496816 176 134 C174.8448855 132.83845629 173.69306213 131.67347292 172.55712891 130.49316406 C169.54480117 127.60457886 166.08472816 125.28547989 162.6875 122.875 C161.89279297 122.306604 161.09808594 121.73820801 160.27929688 121.15258789 C152.58730975 115.66891091 144.82549968 110.2911049 137 105 C136.278125 104.51144531 135.55625 104.02289063 134.8125 103.51953125 C125.00180516 96.89390574 115.09908686 90.4478118 105.01416016 84.24755859 C102.98235789 82.98907259 100.96518316 81.70945708 98.94921875 80.42578125 C81.35591044 69.31937968 62.67381146 58.90800497 43 52 C41.88238281 51.5771875 40.76476562 51.154375 39.61328125 50.71875 C20.09473318 43.67575356 -0.21955754 40.76588507 -20.875 40.75 C-21.66034119 40.74932526 -22.44568237 40.74865051 -23.25482178 40.74795532 C-34.78081123 40.76370805 -45.77316892 41.17326475 -57 44 C-57.6801416 44.16097168 -58.3602832 44.32194336 -59.06103516 44.48779297 C-81.92738071 49.98395222 -101.33136028 61.57154241 -118 78 C-119.09441406 79.07507813 -119.09441406 79.07507813 -120.2109375 80.171875 C-127.30116848 87.62642615 -133.48850248 97.31565946 -137 107 C-137.99 106.67 -138.98 106.34 -140 106 C-127.86408765 66.28246868 -102.46848683 36.94999602 -65.8125 17.3125 C-46.34384827 7.19569453 -22.27373337 -1.89116604 0 0 Z M-127 80 C-127.33 80.66 -127.66 81.32 -128 82 C-127.34 82 -126.68 82 -126 82 C-126.33 81.34 -126.66 80.68 -127 80 Z " fill="#052FA6" transform="translate(155,17)"/>
<path d="M0 0 C0.33 0 0.66 0 1 0 C2.6198586 25.51277298 -11.84520545 50.37090391 -28 69 C-56.30682027 100.54054643 -95.9615956 114.03729719 -137.3359375 116.47265625 C-154.3813698 117.29081133 -171.02803377 116.70407969 -188 115 C-188 114.67 -188 114.34 -188 114 C-183.44724646 112.78051244 -179.14272956 113.10649058 -174.5 113.4375 C-148.06701901 115.10644511 -148.06701901 115.10644511 -121.95947266 111.48022461 C-120 111 -120 111 -116.83984375 110.78125 C-90.59626183 108.88982067 -63.06958358 97.01169607 -43 80 C-42.67 79.34 -42.34 78.68 -42 78 C-41.34 78 -40.68 78 -40 78 C-39.67 76.35 -39.34 74.7 -39 73 C-39.54785156 73.35191406 -40.09570312 73.70382813 -40.66015625 74.06640625 C-61.73479235 87.19093572 -61.73479235 87.19093572 -73 87 C-73.66 86.34 -74.32 85.68 -75 85 C-73.94941406 84.68546875 -72.89882813 84.3709375 -71.81640625 84.046875 C-60.46216832 80.60541766 -49.84473238 76.83661971 -40 70 C-39.67 69.34 -39.34 68.68 -39 68 C-39.94617188 68.44730469 -40.89234375 68.89460938 -41.8671875 69.35546875 C-67.46313332 81.16721794 -97.09550517 86.81993188 -125 81 C-125 80.67 -125 80.34 -125 80 C-123.17178711 79.93268677 -123.17178711 79.93268677 -121.30664062 79.86401367 C-116.70634987 79.69143693 -112.10681052 79.50304383 -107.50732422 79.31030273 C-105.53125406 79.2296108 -103.55501272 79.15298893 -101.57861328 79.08081055 C-79.7447117 78.30197079 -79.7447117 78.30197079 -59 72 C-55.05672689 71.01418172 -51.02505703 70.55245881 -47 70 C-47 69.34 -47 68.68 -47 68 C-46.01 68 -45.02 68 -44 68 C-44 67.34 -44 66.68 -44 66 C-41.03 65.01 -38.06 64.02 -35 63 C-35 62.34 -35 61.68 -35 61 C-33.68 60.67 -32.36 60.34 -31 60 C-31 59.34 -31 58.68 -31 58 C-29.68 57.67 -28.36 57.34 -27 57 C-27 56.34 -27 55.68 -27 55 C-25 56 -25 56 -22 58 C-21.67 56.68 -21.34 55.36 -21 54 C-20.34 54 -19.68 54 -19 54 C-19 53.01 -19 52.02 -19 51 C-18.54625 50.566875 -18.0925 50.13375 -17.625 49.6875 C-15.79413204 48.03195562 -15.79413204 48.03195562 -15.125 45.3125 C-14.15929219 42.46902701 -13.35137088 40.94686325 -11.6875 38.5625 C-4.46580466 27.30515139 -2.48776729 12.91137325 0 0 Z M-36 65 C-36.33 65.66 -36.66 66.32 -37 67 C-36.01 66.67 -35.02 66.34 -34 66 C-34.66 65.67 -35.32 65.34 -36 65 Z " fill="#0590AD" transform="translate(766,180)"/>
<path d="M0 0 C0.67796631 0.11375977 1.35593262 0.22751953 2.05444336 0.34472656 C7.26210312 1.29816116 12.13193763 2.88900493 17.125 4.625 C18.77234832 5.16608777 20.42082102 5.70376249 22.0703125 6.23828125 C32.58693732 9.67948255 42.91824965 13.34474985 53.125 17.625 C53.125 18.285 53.125 18.945 53.125 19.625 C53.98834961 19.88837158 54.85169922 20.15174316 55.74121094 20.4230957 C60.99921793 22.29071247 65.70530931 25.07980725 70.56396484 27.80004883 C72.35218248 28.79974397 74.14633095 29.78807455 75.94140625 30.77539062 C82.20235447 34.24663215 88.20394115 37.89837316 93.9753418 42.14257812 C96.14391354 43.63804293 98.31459597 44.79946661 100.6875 45.9375 C104.125 47.625 104.125 47.625 105.125 49.625 C106.40781511 50.40520873 107.7276369 51.12512762 109.0625 51.8125 C113.40846862 54.16000746 117.39027014 56.81415135 121.40625 59.68359375 C124.37319678 61.80223247 127.37162386 63.87085647 130.375 65.9375 C133.92232664 68.38233604 137.44586587 70.84693823 140.92578125 73.38671875 C141.55387695 73.84328857 142.18197266 74.2998584 142.82910156 74.77026367 C144.04198175 75.65442974 145.25116196 76.54370031 146.45605469 77.4387207 C149.35406866 79.54794366 151.67661896 80.78116087 155.125 81.625 C155.455 82.615 155.785 83.605 156.125 84.625 C158.73142779 86.62171712 158.73142779 86.62171712 161.875 88.5625 C164.99221968 90.55491012 167.98634676 92.51356461 170.87109375 94.83203125 C173.06185895 96.57477168 174.39456799 97.22049155 177.125 97.625 C177.125 98.285 177.125 98.945 177.125 99.625 C177.785 99.625 178.445 99.625 179.125 99.625 C180.29918663 100.79280518 181.46927644 101.96504851 182.6171875 103.15869141 C185.37923859 105.84471453 188.52254063 108.03890497 191.625 110.3125 C193.0487536 111.36640911 194.47192187 112.42110937 195.89453125 113.4765625 C196.60303223 114.0015332 197.3115332 114.52650391 198.04150391 115.06738281 C202.19385791 118.17167372 206.27117952 121.37342533 210.35546875 124.56640625 C214.81153436 128.20060118 214.81153436 128.20060118 220.125 129.625 C220.51655273 130.53040527 220.51655273 130.53040527 220.91601562 131.45410156 C222.21595912 133.78832967 223.32137306 134.80745988 225.46875 136.359375 C226.13334229 136.84720459 226.79793457 137.33503418 227.48266602 137.83764648 C228.54312134 138.59863647 228.54312134 138.59863647 229.625 139.375 C231.08297264 140.44272614 232.54000528 141.51173704 233.99609375 142.58203125 C234.70491699 143.10104004 235.41374023 143.62004883 236.14404297 144.15478516 C238.7114404 146.06024083 241.20497866 148.04808933 243.6875 150.0625 C247.40346032 153.07425126 251.19868513 155.89365053 255.125 158.625 C254.465 159.285 253.805 159.945 253.125 160.625 C244.48704609 154.04266043 235.8695765 147.43723914 227.3125 140.75 C218.45758138 133.83922108 209.47937905 127.09919945 200.4765625 120.3828125 C198.29264408 118.75031534 196.1137931 117.11139268 193.9375 115.46875 C186.75085665 110.04616501 179.5238117 104.68017808 172.25 99.375 C171.46995605 98.80120605 170.68991211 98.22741211 169.88623047 97.63623047 C169.16322754 97.11174316 168.44022461 96.58725586 167.6953125 96.046875 C166.73262451 95.34449707 166.73262451 95.34449707 165.75048828 94.62792969 C164.15965136 93.44996816 164.15965136 93.44996816 162.125 93.625 C160.9698855 92.46345629 159.81806213 91.29847292 158.68212891 90.11816406 C155.66980117 87.22957886 152.20972816 84.91047989 148.8125 82.5 C148.01779297 81.931604 147.22308594 81.36320801 146.40429688 80.77758789 C138.71230975 75.29391091 130.95049968 69.9161049 123.125 64.625 C122.403125 64.13644531 121.68125 63.64789063 120.9375 63.14453125 C111.12680516 56.51890574 101.22408686 50.0728118 91.13916016 43.87255859 C89.10735789 42.61407259 87.09018316 41.33445708 85.07421875 40.05078125 C67.48091044 28.94437968 48.79881146 18.53300497 29.125 11.625 C28.00738281 11.2021875 26.88976562 10.779375 25.73828125 10.34375 C6.66986212 3.46317632 -13.21457595 0.64250281 -33.375 0.0625 C-34.78386473 0.01922263 -36.19271907 -0.02439431 -37.6015625 -0.06835938 C-41.0259546 -0.17390571 -44.45041292 -0.27601798 -47.875 -0.375 C-47.875 -0.705 -47.875 -1.035 -47.875 -1.375 C-31.63289532 -2.26489541 -16.0966461 -2.71123646 0 0 Z " fill="#0448B8" transform="translate(168.875,57.375)"/>
<path d="M0 0 C3.98337004 0.61282616 6.78999396 2.72419703 10 5 C10.64066406 5.43828125 11.28132812 5.8765625 11.94140625 6.328125 C18.02501232 10.51787805 23.98149689 14.88163016 29.9375 19.25 C31.19953247 20.17208252 31.19953247 20.17208252 32.48706055 21.11279297 C33.68262573 21.99281982 33.68262573 21.99281982 34.90234375 22.890625 C35.61898193 23.41688477 36.33562012 23.94314453 37.07397461 24.48535156 C38.85920356 25.88927607 40.4351271 27.35742095 42 29 C38.06019027 32.10370863 34.11623718 35.20206519 30.16943359 38.296875 C28.70508197 39.44647177 27.24189212 40.59754973 25.77978516 41.75 C16.38893339 49.15069718 6.96574473 56.38164121 -3 63 C-3.79970215 63.53705566 -4.5994043 64.07411133 -5.42333984 64.62744141 C-52.6940259 96.32195019 -102.40266327 119.05808891 -160 121 C-160.67192383 121.02336426 -161.34384766 121.04672852 -162.03613281 121.07080078 C-179.30334207 121.57966604 -197.00678238 120.53801388 -213.9375 117.0625 C-214.71786621 116.90491211 -215.49823242 116.74732422 -216.30224609 116.58496094 C-219.96756999 115.75904239 -222.72316779 115.13399257 -225 112 C-212.54147616 113.81004829 -212.54147616 113.81004829 -207.4375 115.0625 C-195.64851129 117.75222755 -183.2451034 117.2174358 -171.22265625 117.24023438 C-168.16638216 117.24986954 -165.11080264 117.28094283 -162.0546875 117.3125 C-127.60787394 117.49674378 -94.78622049 109.46784931 -63.734375 94.6640625 C-62 94 -62 94 -59 94 C-59 93.34 -59 92.68 -59 92 C-58.38761475 91.7728833 -57.77522949 91.5457666 -57.14428711 91.31176758 C-50.93437964 88.93000722 -45.27197288 86.08532113 -39.5625 82.6875 C-38.32209961 81.95901855 -38.32209961 81.95901855 -37.05664062 81.21582031 C-30.9490841 77.6111644 -24.94561062 73.86559668 -19 70 C-18.17242187 69.48566406 -17.34484375 68.97132813 -16.4921875 68.44140625 C-2.04336426 59.44863119 11.51301208 49.24135694 24.84765625 38.68896484 C26.3882895 37.48001512 27.93897355 36.28383062 29.49609375 35.09619141 C30.31207031 34.47276855 31.12804687 33.8493457 31.96875 33.20703125 C33.08926758 32.35782104 33.08926758 32.35782104 34.23242188 31.49145508 C36.11244824 30.10442811 36.11244824 30.10442811 37 28 C36.34 28 35.68 28 35 28 C33.85289394 26.84215325 32.70884984 25.68113711 31.57910156 24.50634766 C28.46761088 21.5382126 24.87938733 19.1651614 21.375 16.6875 C19.76953069 15.53906329 18.16406194 14.39062579 16.55859375 13.2421875 C15.03941021 12.16096962 13.51990316 11.08020606 12 10 C9.80901875 8.44219482 7.62180882 6.87969135 5.4375 5.3125 C4.59058594 4.71050781 3.74367188 4.10851562 2.87109375 3.48828125 C1 2 1 2 0 0 Z " fill="#06248A" transform="translate(342,174)"/>
<path d="M0 0 C-11.36562059 8.65402583 -11.36562059 8.65402583 -16.4375 11.9375 C-25.77564106 18.04386182 -35.10586997 25.10586997 -43 33 C-43.75410156 33.43441406 -44.50820313 33.86882812 -45.28515625 34.31640625 C-48.37098493 36.23006404 -50.79752854 38.44731415 -53.4375 40.9375 C-56.19930437 43.54216045 -58.80436025 45.8715393 -61.98046875 47.95703125 C-65.36842831 50.24927297 -68.04560077 52.82064916 -70.875 55.75 C-71.37257813 56.25660156 -71.87015625 56.76320312 -72.3828125 57.28515625 C-73.59323202 58.51885307 -74.79729853 59.75877784 -76 61 C-74.60882924 63.78234151 -72.67448307 64.41827663 -70 66 C-67.93615722 67.5410391 -65.8994145 69.09682325 -63.875 70.6875 C-54.3578664 78.50963016 -54.3578664 78.50963016 -44 85 C-44 85.66 -44 86.32 -44 87 C-41.69 87.33 -39.38 87.66 -37 88 C-36.67 87.34 -36.34 86.68 -36 86 C-35.01 85.67 -34.02 85.34 -33 85 C-32.236875 84.195625 -31.47375 83.39125 -30.6875 82.5625 C-27.82704508 79.83508949 -25.78193472 78.96747167 -22 78 C-22 77.34 -22 76.68 -22 76 C-20.33861059 74.82638506 -18.61820517 73.73574737 -16.875 72.6875 C-13.63096604 70.68701239 -10.5085719 68.7465662 -7.625 66.25 C-5.15701328 64.13458282 -2.80190491 62.62901448 0 61 C1.37971777 60.09044975 2.75413454 59.17283838 4.125 58.25 C8.59677625 55.24376387 13.1446702 52.36957304 17.71484375 49.515625 C20.06969263 48.0626008 20.06969263 48.0626008 22 46 C28.53988247 41.92700739 35.32303024 38.25416801 42.09765625 34.58984375 C45.35698184 32.80445275 48.58763909 30.97159346 51.8125 29.125 C52.69373535 28.62178223 52.69373535 28.62178223 53.59277344 28.10839844 C56.6010207 26.38729453 59.59853285 24.65039928 62.58203125 22.88671875 C68.89718168 19.17503833 75.20197973 15.85537911 82.03515625 13.16796875 C86.24496583 11.50955891 90.36816703 9.65475726 94.50390625 7.8203125 C97 7 97 7 100 8 C95.55326545 10.27655788 91.08417305 12.43139314 86.515625 14.453125 C63.23690031 24.79901718 41.43587835 37.28077865 20.27636719 51.47509766 C18.01721034 52.98847107 15.74848947 54.48634961 13.4765625 55.98046875 C5.57464576 61.19023083 -2.24169415 66.5162493 -10 71.9375 C-10.82628906 72.51435547 -11.65257812 73.09121094 -12.50390625 73.68554688 C-16.75614322 76.67009818 -20.96425488 79.70148415 -25.125 82.8125 C-25.94484375 83.42101807 -26.7646875 84.02953613 -27.609375 84.65649414 C-29.16981995 85.81901925 -30.72235232 86.99226347 -32.265625 88.17749023 C-32.96171875 88.69512939 -33.6578125 89.21276855 -34.375 89.74609375 C-34.98085938 90.20685303 -35.58671875 90.6676123 -36.2109375 91.14233398 C-38 92 -38 92 -40.02514648 91.78027344 C-43.43960735 90.43120471 -46.18638164 88.04731931 -49.0625 85.8125 C-50.48369279 84.72697084 -51.90560018 83.64237677 -53.328125 82.55859375 C-54.08029297 81.98351074 -54.83246094 81.40842773 -55.60742188 80.81591797 C-59.81054917 77.62583013 -64.06216208 74.50174624 -68.3125 71.375 C-69.13049072 70.77147705 -69.94848145 70.1679541 -70.79125977 69.54614258 C-73.831004 67.30732349 -76.85812977 65.09458016 -80 63 C-78.89057377 55.78069017 -70.5425645 50.22290628 -65 46 C-64.34 46 -63.68 46 -63 46 C-63 45.34 -63 44.68 -63 44 C-61.05667714 42.33693448 -59.10248926 40.78735949 -57.0625 39.25 C-52.2426881 35.55150681 -47.50411191 31.78486287 -42.84790039 27.88208008 C-33.56384635 20.10629317 -23.95287595 12.89680615 -14 6 C-13.40300293 5.58508301 -12.80600586 5.17016602 -12.19091797 4.74267578 C-3.57098437 -1.19032812 -3.57098437 -1.19032812 0 0 Z " fill="#0455AA" transform="translate(481,61)"/>
<path d="M0 0 C0.72461426 0.08540039 1.44922852 0.17080078 2.19580078 0.25878906 C8.12464541 0.97615816 13.48069022 1.67699937 19 4 C20.82891939 4.55638813 22.66281026 5.09656102 24.5 5.625 C61.75513684 17.11060833 93.38007152 37.44292496 123.82861328 61.30322266 C125.74899684 62.80385969 127.67992194 64.28814049 129.62109375 65.76171875 C141.89999504 75.08384004 153.74694158 84.95015753 165.63476562 94.76196289 C170.48573611 98.76312427 175.36179823 102.73195441 180.25 106.6875 C185.09403895 110.60774266 189.8870673 114.57724714 194.625 118.625 C200.68586232 123.79535522 206.92254995 128.71917094 213.21191406 133.60742188 C216.84362909 136.43583565 220.45661064 139.28819755 224.07275391 142.13647461 C228.15983146 145.35158777 232.27758906 148.52409228 236.42578125 151.66015625 C238 153 238 153 239 155 C235.23629063 153.67475022 232.55521106 152.05298458 229.5 149.5 C225.62215838 146.31155245 221.68769085 143.21999939 217.6875 140.1875 C212.51819145 136.24777683 207.53650523 132.12471436 202.59887695 127.8996582 C198.88627312 124.72862855 195.09802956 121.69463426 191.22265625 118.7265625 C188.71466431 116.77835084 186.2635543 114.76935478 183.8125 112.75 C180.24751522 109.81471351 176.64834789 106.93675001 172.99951172 104.10742188 C166.57749872 99.12467107 160.39284856 93.93088904 154.27685547 88.57763672 C146.15968567 81.44544362 146.15968567 81.44544362 137.25 75.375 C135 74 135 74 132.6953125 71.671875 C130.12728687 69.12618003 127.53284071 67.01719078 124.625 64.875 C123.57828125 64.10285156 122.5315625 63.33070312 121.453125 62.53515625 C120.89560547 62.12668457 120.33808594 61.71821289 119.76367188 61.29736328 C117.91301635 59.93601452 116.07322043 58.56084569 114.234375 57.18359375 C107.88984617 52.45391904 101.61721686 47.93333672 94.66015625 44.12109375 C94.11230469 43.75113281 93.56445312 43.38117187 93 43 C93 42.34 93 41.68 93 41 C92.113125 40.7525 91.22625 40.505 90.3125 40.25 C86.81252939 38.92925637 84.88558121 37.34872889 82 35 C79.98091653 33.78314166 77.91953539 32.66824572 75.84375 31.55078125 C73.63616424 30.34691924 71.45642568 29.11573309 69.28125 27.85546875 C61.3738321 23.29044047 53.55520941 19.24731152 45 16 C43.20369141 15.27876953 43.20369141 15.27876953 41.37109375 14.54296875 C31.13533438 10.48531808 20.7527549 7.3679352 10 5 C9.2481543 4.83338867 8.49630859 4.66677734 7.72167969 4.49511719 C-10.86168023 0.61789782 -30.12523022 1.71519151 -49 2 C-49 1.34 -49 0.68 -49 0 C-50.65 0 -52.3 0 -54 0 C-54 -0.33 -54 -0.66 -54 -1 C-35.96754746 -3.09071914 -17.97095055 -2.14567433 0 0 Z " fill="#035AC8" transform="translate(204,17)"/>
<path d="M0 0 C5.57532336 8.36298505 3.66020523 21.77137656 1.8125 31.25 C-0.2975929 40.02719395 -3.91075415 47.74162596 -8.88671875 55.24609375 C-10.05486599 56.99695569 -10.05486599 56.99695569 -10.91796875 59.01953125 C-12.18686107 61.34201648 -13.58365184 62.57463059 -15.625 64.25 C-18.56162588 66.71212619 -21.20777448 69.2536929 -23.8125 72.0625 C-27.63499554 75.97618827 -31.80783029 78.34429421 -36.6796875 80.7734375 C-39.10745092 81.91099931 -39.10745092 81.91099931 -41 84 C-45.59173161 85.87001973 -50.30302778 87.41607936 -55 89 C-55.95777344 89.32742187 -56.91554688 89.65484375 -57.90234375 89.9921875 C-62.8180285 91.58277887 -66.79653771 92.09636041 -72 92 C-73.69189453 92.49886719 -73.69189453 92.49886719 -75.41796875 93.0078125 C-81.15019244 94.49664212 -86.81716919 94.08556764 -92.6875 93.8125 C-93.87053711 93.76279053 -95.05357422 93.71308105 -96.27246094 93.66186523 C-109.30594096 93.02456768 -122.48465052 91.8650344 -135 88 C-135 88.66 -135 89.32 -135 90 C-120.56788308 95.9241004 -106.15659789 101.30358526 -91.0625 105.3125 C-89.64227539 105.69438477 -89.64227539 105.69438477 -88.19335938 106.08398438 C-82.77461054 107.47954986 -77.58515215 108.36541172 -71.99389648 108.68041992 C-70 109 -70 109 -68 111 C-94.41331634 113.78577946 -122.75310383 98.950386 -146 88 C-146.7950293 87.6277832 -147.59005859 87.25556641 -148.40917969 86.87207031 C-150.67574841 85.80385267 -152.93318535 84.71880645 -155.1875 83.625 C-155.86530518 83.30337891 -156.54311035 82.98175781 -157.24145508 82.65039062 C-158.86824106 81.84413546 -160.44070917 80.9301033 -162 80 C-162.33 79.01 -162.66 78.02 -163 77 C-162.42677002 77.17595703 -161.85354004 77.35191406 -161.26293945 77.53320312 C-120.9708281 89.77465371 -77.41857856 98.58585967 -38.125 78.1875 C-32.65158525 75.25004665 -28.07193359 71.8617247 -23.63671875 67.46875 C-22 66 -22 66 -20 66 C-19.72414063 65.39671875 -19.44828125 64.7934375 -19.1640625 64.171875 C-18 62 -18 62 -15.375 59.25 C-3.36336787 45.55614912 0.22912142 27.13623669 0.0625 9.5 C0.05573242 8.12328125 0.05573242 8.12328125 0.04882812 6.71875 C0.03716326 4.47909609 0.02079614 2.23958455 0 0 Z " fill="#057FA3" transform="translate(707,149)"/>
<path d="M0 0 C3.88907038 2.54470037 7.66224033 5.19861259 11.40185547 7.95727539 C37.08015089 26.83802344 64.01515279 43.76732386 92 59 C92.63711914 59.3501416 93.27423828 59.7002832 93.93066406 60.06103516 C104.41076354 65.81875665 115.13895295 71.00158265 126 76 C126.8137207 76.38091797 127.62744141 76.76183594 128.46582031 77.15429688 C129.26342773 77.52103516 130.06103516 77.88777344 130.8828125 78.265625 C131.60098145 78.59852539 132.31915039 78.93142578 133.05908203 79.27441406 C135.12299193 80.17508388 135.12299193 80.17508388 138 80 C138 80.66 138 81.32 138 82 C138.680625 82.15855469 139.36125 82.31710938 140.0625 82.48046875 C145.29483503 83.73984726 150.4386103 85.11079582 155.55151367 86.796875 C165.54385236 90.08216465 175.65801301 92.14015773 186 94 C187.15242187 94.2165625 188.30484375 94.433125 189.4921875 94.65625 C195.88853936 95.7629979 202.27659978 96.30486988 208.75 96.6875 C209.53060791 96.73608154 210.31121582 96.78466309 211.11547852 96.8347168 C215.84805003 97.06966716 220.30338133 96.80557861 225.00048828 96.20678711 C228.76488492 95.81747771 232.27246331 96.46749476 236 97 C236.33 96.34 236.66 95.68 237 95 C238.62463842 94.94604522 240.24978541 94.90722805 241.875 94.875 C242.77992188 94.85179687 243.68484375 94.82859375 244.6171875 94.8046875 C247 95 247 95 249 97 C238.68348291 99.24585113 228.5620711 99.35811173 218.0625 99.3125 C217.19628021 99.31067719 216.33006042 99.30885437 215.43759155 99.30697632 C192.62024513 99.22606094 171.87334856 95.32868885 150 89 C150 88.34 150 87.68 150 87 C149.29359375 87.22171875 148.5871875 87.4434375 147.859375 87.671875 C144.13271137 88.09952492 142.50417353 87.05787418 139.25 85.25 C134.77413677 82.85992223 130.52402377 81.01215803 125.64453125 79.640625 C124 79 124 79 123 77 C121.27675557 76.28583662 119.51988068 75.65167151 117.75 75.0625 C113.80439402 73.74552071 110.5278016 72.19531926 107 70 C104.96955182 68.91621532 102.92739359 67.85412833 100.875 66.8125 C99.84117187 66.28269531 98.80734375 65.75289063 97.7421875 65.20703125 C95.04171859 63.79856516 95.04171859 63.79856516 92 64 C92 63.01 92 62.02 92 61 C91.319375 60.9175 90.63875 60.835 89.9375 60.75 C86.75957483 59.93861485 84.50007242 58.66429413 81.71484375 56.98828125 C79.56122751 55.74713112 77.33291001 54.84833091 75 54 C75 53.34 75 52.68 75 52 C72.32624701 50.89904289 69.72130044 49.92037155 66.9375 49.125 C64 48 64 48 62.3515625 46.2578125 C59.07707059 43.11386512 55.3364331 41.04296983 51.4375 38.75 C45.13869413 34.98196999 39.10844733 31.10014032 33.26171875 26.65625 C31.02251407 24.96142826 31.02251407 24.96142826 28.578125 23.55859375 C25.57714634 21.74436574 22.84980457 19.68974789 20.0625 17.5625 C16.97262334 15.20621986 13.90177879 12.91879855 10.62109375 10.83984375 C9.75613281 10.23269531 8.89117187 9.62554687 8 9 C8 8.34 8 7.68 8 7 C6.8553125 6.5978125 6.8553125 6.5978125 5.6875 6.1875 C3.11011382 5.04865495 1.73045136 4.18583329 0 2 C0 1.34 0 0.68 0 0 Z " fill="#04A5C0" transform="translate(443,171)"/>
<path d="M0 0 C0.33 0 0.66 0 1 0 C1.0093457 0.91064209 1.01869141 1.82128418 1.02832031 2.75952148 C1.04986613 26.71116224 1.04986613 26.71116224 6 50 C6.32613281 51.07636719 6.65226562 52.15273437 6.98828125 53.26171875 C12.08375309 68.3257864 21.40019588 81.47766724 32.60058594 92.59326172 C33.89549121 93.89494423 35.14167344 95.24461121 36.3828125 96.59765625 C47.73410263 108.73776485 61.96262313 117.22575603 77 124 C78.11761719 124.515625 79.23523438 125.03125 80.38671875 125.5625 C85.99329241 128.03867808 90.86997527 129.64634473 97 130 C97.33 130.99 97.66 131.98 98 133 C90.90473565 132.54131624 85.34913094 130.8810003 78.875 128 C77.96137695 127.59990723 77.04775391 127.19981445 76.10644531 126.78759766 C59.80689986 119.48336742 46.37038074 109.55683777 33.41943359 97.3359375 C32.13902002 96.13084237 30.84565251 94.93954681 29.55078125 93.75 C10.88983956 76.03350388 -0.61465423 49.85109411 -1.6875 24.25 C-1.7272998 23.3839917 -1.76709961 22.5179834 -1.80810547 21.62573242 C-2.07596715 14.72348791 -2.07494458 7.84381386 -1 1 C-0.67 0.67 -0.34 0.34 0 0 Z " fill="#072186" transform="translate(18,153)"/>
<path d="M0 0 C-2.40638015 2.40638015 -3.43010282 2.40546256 -6.7421875 2.859375 C-7.71655762 3.00238037 -8.69092773 3.14538574 -9.69482422 3.29272461 C-11.26901123 3.51907593 -11.26901123 3.51907593 -12.875 3.75 C-27.021829 5.95002825 -41.28587145 8.9229611 -53.921875 15.92578125 C-56.06913979 17.03573955 -58.11848095 17.7060522 -60.4375 18.375 C-66.93795779 20.3991639 -73.28981546 24.22257805 -78.046875 29.09765625 C-80.12996168 31.12658268 -81.76260125 31.91741029 -84.4375 33 C-93.95582557 37.54795733 -101.77305279 46.12513763 -108.453125 54.14453125 C-109.53428212 55.44137376 -110.6524924 56.70781241 -111.796875 57.94921875 C-116.74384859 63.32958105 -120.67367204 69.02101612 -123 76 C-124.4375 77.5625 -124.4375 77.5625 -126 79 C-126.99 79.99 -126.99 79.99 -128 81 C-129 78 -129 78 -127.84765625 75.43359375 C-120.88111651 63.74139249 -112.363302 53.81292982 -103 44 C-102.46576416 43.43442383 -101.93152832 42.86884766 -101.38110352 42.28613281 C-97.26452838 38.03262985 -92.92264688 34.49425555 -88.0625 31.125 C-87.32523682 30.61106689 -86.58797363 30.09713379 -85.82836914 29.56762695 C-61.2281187 12.68036961 -30.35471484 -1.38208651 0 0 Z " fill="#0538B0" transform="translate(155,17)"/>
<path d="M0 0 C3.67467394 1.31443528 6.45403302 2.90343754 9.51953125 5.30859375 C10.36974854 5.96851318 11.21996582 6.62843262 12.09594727 7.30834961 C12.99240967 8.01096924 13.88887207 8.71358887 14.8125 9.4375 C21.46793674 14.57841496 28.14492063 19.65305175 35.0625 24.4375 C35.71001221 24.89116943 36.35752441 25.34483887 37.0246582 25.81225586 C40.32555697 28.11207978 40.32555697 28.11207978 44.06445312 29.4855957 C46.58925963 30.15660571 47.65103684 31.67215867 49.39794922 33.52929688 C52.84495279 36.69369027 57.04668517 38.88741536 61.0625 41.25 C61.96033203 41.79140625 62.85816406 42.3328125 63.78320312 42.890625 C69.11016159 46.12350929 69.11016159 46.12350929 75 48 C75 48.66 75 49.32 75 50 C75.83144531 50.26167969 76.66289062 50.52335937 77.51953125 50.79296875 C81.33970786 52.11781114 84.99475613 53.67285955 88.6875 55.3125 C89.74360474 55.7760791 89.74360474 55.7760791 90.82104492 56.24902344 C94.84854113 58.02268406 98.83578397 59.86478447 102.8125 61.75 C110.73042749 65.35981747 118.87198194 67.01403573 127.40625 68.4609375 C131.13908461 69.23673746 134.48316409 70.54018132 138 72 C137.67 72.66 137.34 73.32 137 74 C129.22739941 73.48182663 122.41437846 71.44811256 115.0625 68.9375 C113.86753906 68.53265381 112.67257812 68.12780762 111.44140625 67.71069336 C88.89835429 59.93874542 67.94636158 49.01692719 48 36 C47.05713135 35.38922607 47.05713135 35.38922607 46.09521484 34.76611328 C37.16479872 28.96812743 28.51079854 22.84232141 19.97949219 16.47363281 C17.84936452 14.88785943 15.71018812 13.31477754 13.5703125 11.7421875 C12.10909241 10.66184044 10.64814823 9.58112009 9.1875 8.5 C8.49922119 7.99549316 7.81094238 7.49098633 7.10180664 6.97119141 C6.46364014 6.49601074 5.82547363 6.02083008 5.16796875 5.53125 C4.60360107 5.11423828 4.0392334 4.69722656 3.45776367 4.26757812 C2 3 2 3 0 0 Z " fill="#0577A6" transform="translate(423,217)"/>
<path d="M0 0 C0.67796631 0.11375977 1.35593262 0.22751953 2.05444336 0.34472656 C7.26210312 1.29816116 12.13193763 2.88900493 17.125 4.625 C18.77234832 5.16608777 20.42082102 5.70376249 22.0703125 6.23828125 C32.58693732 9.67948255 42.91824965 13.34474985 53.125 17.625 C53.125 18.285 53.125 18.945 53.125 19.625 C53.99987061 19.89376953 54.87474121 20.16253906 55.77612305 20.43945312 C61.17841336 22.35193557 65.97139354 25.29336725 70.9375 28.125 C71.99904297 28.71925781 73.06058594 29.31351563 74.15429688 29.92578125 C75.16169922 30.49683594 76.16910156 31.06789062 77.20703125 31.65625 C78.12718018 32.17767578 79.0473291 32.69910156 79.99536133 33.23632812 C82.125 34.625 82.125 34.625 83.125 36.625 C79.48484294 36.04679604 76.75933926 35.0744413 73.5625 33.25390625 C72.69423584 32.76688232 71.82597168 32.2798584 70.93139648 31.77807617 C70.00528564 31.25318604 69.0791748 30.7282959 68.125 30.1875 C35.86443659 12.31488579 3.75845255 1.13080623 -33.375 0.0625 C-34.78386473 0.01922263 -36.19271907 -0.02439431 -37.6015625 -0.06835938 C-41.0259546 -0.17390571 -44.45041292 -0.27601798 -47.875 -0.375 C-47.875 -0.705 -47.875 -1.035 -47.875 -1.375 C-31.63289532 -2.26489541 -16.0966461 -2.71123646 0 0 Z " fill="#063CB1" transform="translate(168.875,57.375)"/>
<path d="M0 0 C0.99 0.33 1.98 0.66 3 1 C-12.06521833 13.15531063 -32.47499692 17.52677371 -51 21 C-51.69399902 21.13035645 -52.38799805 21.26071289 -53.10302734 21.39501953 C-76.5784642 25.56111795 -101.42071644 24.36749105 -125 22 C-125 21.67 -125 21.34 -125 21 C-120.44724646 19.78051244 -116.14272956 20.10649058 -111.5 20.4375 C-85.06701901 22.10644511 -85.06701901 22.10644511 -58.95947266 18.48022461 C-57 18 -57 18 -53.83984375 17.78125 C-36.03414598 16.49795647 -17.3516579 10.59478619 -2.1875 1.1171875 C-1.1046875 0.56417969 -1.1046875 0.56417969 0 0 Z " fill="#079CB6" transform="translate(703,273)"/>
<path d="M0 0 C0.99 0.495 0.99 0.495 2 1 C-12.07656798 17.89188158 -38.88184443 22.79357823 -59.63671875 25.46875 C-62.7634192 25.74565336 -65.86252177 25.91024627 -69 26 C-70.83304688 26.05994141 -70.83304688 26.05994141 -72.703125 26.12109375 C-80.6890394 26.25850321 -88.18114668 25.63074781 -96 24 C-96 23.67 -96 23.34 -96 23 C-94.78119141 22.95512451 -93.56238281 22.91024902 -92.30664062 22.86401367 C-87.70634987 22.69143693 -83.10681052 22.50304383 -78.50732422 22.31030273 C-76.53125406 22.2296108 -74.55501272 22.15298893 -72.57861328 22.08081055 C-50.7447117 21.30197079 -50.7447117 21.30197079 -30 15 C-26.05672689 14.01418172 -22.02505703 13.55245881 -18 13 C-18 12.34 -18 11.68 -18 11 C-17.01 11 -16.02 11 -15 11 C-15 10.34 -15 9.68 -15 9 C-12.03 8.01 -9.06 7.02 -6 6 C-6 5.34 -6 4.68 -6 4 C-4.68 3.67 -3.36 3.34 -2 3 C-2 2.34 -2 1.68 -2 1 C-1.34 0.67 -0.68 0.34 0 0 Z " fill="#04789E" transform="translate(737,237)"/>
<path d="M0 0 C-4.44673455 2.27655788 -8.91582695 4.43139314 -13.484375 6.453125 C-37.62128776 17.18042644 -60.07554358 30.27275603 -82 45 C-83.61287954 46.07612315 -85.22616292 47.15164128 -86.83984375 48.2265625 C-89.16331325 49.7749089 -91.4862631 51.32397635 -93.80664062 52.87695312 C-99.48322263 56.67332788 -105.21009534 60.37812131 -111 64 C-110.18347617 59.74875091 -108.54807822 58.49978238 -105 56 C-103.34151823 54.98648336 -101.67334039 53.98879205 -100 53 C-98.62071961 52.08978663 -97.24623475 51.17228956 -95.875 50.25 C-91.40322375 47.24376387 -86.8553298 44.36957304 -82.28515625 41.515625 C-79.93030737 40.0626008 -79.93030737 40.0626008 -78 38 C-71.46011753 33.92700739 -64.67696976 30.25416801 -57.90234375 26.58984375 C-54.64301816 24.80445275 -51.41236091 22.97159346 -48.1875 21.125 C-47.60000977 20.78952148 -47.01251953 20.45404297 -46.40722656 20.10839844 C-43.3989793 18.38729453 -40.40146715 16.65039928 -37.41796875 14.88671875 C-31.10281832 11.17503833 -24.79802027 7.85537911 -17.96484375 5.16796875 C-13.75503417 3.50955891 -9.63183297 1.65475726 -5.49609375 -0.1796875 C-3 -1 -3 -1 0 0 Z " fill="#0479AD" transform="translate(581,69)"/>
<path d="M0 0 C0.72461426 0.08540039 1.44922852 0.17080078 2.19580078 0.25878906 C8.12433923 0.97612112 13.48137342 1.67590963 19 4 C20.87010078 4.57857957 22.7456893 5.13957432 24.625 5.6875 C33.55962988 8.39153643 42.26534989 11.71643565 51 15 C51 15.66 51 16.32 51 17 C46.29043685 16.39417564 42.18632897 15.0152842 37.8125 13.25 C28.71711807 9.73937142 19.51905637 7.09625429 10 5 C9.2481543 4.83338867 8.49630859 4.66677734 7.72167969 4.49511719 C-10.86168023 0.61789782 -30.12523022 1.71519151 -49 2 C-49 1.34 -49 0.68 -49 0 C-50.65 0 -52.3 0 -54 0 C-54 -0.33 -54 -0.66 -54 -1 C-35.96754746 -3.09071914 -17.97095055 -2.14567433 0 0 Z " fill="#054CC1" transform="translate(204,17)"/>
<path d="M0 0 C0.66 0 1.32 0 2 0 C2 0.66 2 1.32 2 2 C2.825 2.185625 3.65 2.37125 4.5 2.5625 C8.41789699 4.17163626 10.65109737 6.17364568 13.734375 9.00390625 C20.08795871 14.60163259 27.25514309 19.28255906 34.41796875 23.7734375 C35.20107422 24.38058594 35.20107422 24.38058594 36 25 C36 25.66 36 26.32 36 27 C38.31 27.33 40.62 27.66 43 28 C43.33 27.34 43.66 26.68 44 26 C44.99 25.67 45.98 25.34 47 25 C47.763125 24.195625 48.52625 23.39125 49.3125 22.5625 C52.17295492 19.83508949 54.21806528 18.96747167 58 18 C58 17.34 58 16.68 58 16 C59.8984375 14.4921875 59.8984375 14.4921875 62.375 12.875 C63.18710937 12.33617187 63.99921875 11.79734375 64.8359375 11.2421875 C67 10 67 10 69 10 C67.59617042 13.35407073 66.07220467 14.97674202 63.11328125 17.05859375 C62.33919922 17.60966797 61.56511719 18.16074219 60.76757812 18.72851562 C59.95740234 19.29248047 59.14722656 19.85644531 58.3125 20.4375 C57.52166016 20.99759766 56.73082031 21.55769531 55.91601562 22.13476562 C54.35459229 23.23975307 52.78841384 24.33805544 51.21728516 25.42919922 C49.78828075 26.44155491 48.37937644 27.48321166 46.99755859 28.55908203 C42.47235822 32.05533372 42.47235822 32.05533372 40.00341797 31.76611328 C36.56435762 30.45100587 33.82035446 28.05255343 30.9375 25.8125 C29.51630721 24.72697084 28.09439982 23.64237677 26.671875 22.55859375 C25.91970703 21.98351074 25.16753906 21.40842773 24.39257812 20.81591797 C20.18945083 17.62583013 15.93783792 14.50174624 11.6875 11.375 C10.46051392 10.46971558 10.46051392 10.46971558 9.20874023 9.54614258 C6.168996 7.30732349 3.14187023 5.09458016 0 3 C0 2.01 0 1.02 0 0 Z " fill="#05449F" transform="translate(401,121)"/>
<path d="M0 0 C0 0.66 0 1.32 0 2 C-0.67804688 2.3403125 -1.35609375 2.680625 -2.0546875 3.03125 C-9.05047249 6.67448429 -15.08104835 10.79209124 -21 16 C-22.16015625 17.01707031 -22.16015625 17.01707031 -23.34375 18.0546875 C-35.98483976 29.8732406 -43.69435022 46.62832768 -44.31640625 63.95703125 C-44.35830078 65.06884766 -44.40019531 66.18066406 -44.44335938 67.32617188 C-44.48267578 68.47666016 -44.52199219 69.62714844 -44.5625 70.8125 C-44.60568359 71.98232422 -44.64886719 73.15214844 -44.69335938 74.35742188 C-44.79918279 77.23817031 -44.90126825 80.11900123 -45 83 C-45.33 83 -45.66 83 -46 83 C-47.18249131 77.71329071 -47.18390274 72.64588874 -47.1875 67.25 C-47.19974609 66.29867187 -47.21199219 65.34734375 -47.22460938 64.3671875 C-47.24377714 55.03887377 -45.66499393 47.40780507 -41.375 39.125 C-41.02381104 38.43736572 -40.67262207 37.74973145 -40.31079102 37.04125977 C-33.9149188 24.83225353 -16.21785985 0 0 0 Z " fill="#05248F" transform="translate(123,91)"/>
<path d="M0 0 C12.36290764 3.76180217 22.99906451 11.00490186 33 19 C33.85078125 19.64710937 34.7015625 20.29421875 35.578125 20.9609375 C46.9712193 29.73863594 59.99473172 41.52872251 66 55 C65.01 55.99 65.01 55.99 64 57 C63.67 56.01 63.34 55.02 63 54 C62.525625 53.525625 62.05125 53.05125 61.5625 52.5625 C59.83457923 50.83457923 59.08633631 49.17267262 58 47 C57.01133036 45.98879658 56.00963788 44.99026833 55 44 C53.97170227 42.81895778 52.95147997 41.63085726 51.9375 40.4375 C36.94066575 23.30722489 19.32033208 11.8159697 -1 2 C-0.67 1.34 -0.34 0.68 0 0 Z " fill="#05B7CC" transform="translate(686,30)"/>
<path d="M0 0 C-0.33 0.66 -0.66 1.32 -1 2 C-4.76808782 1.48251594 -8.51386756 0.91651329 -12.2578125 0.24609375 C-24.08005573 -1.76826625 -35.53142558 -2.26346255 -47.52197266 -1.97680664 C-55.91989425 -1.81713032 -63.72314007 -2.58288576 -72 -4 C-72 -4.33 -72 -4.66 -72 -5 C-47.68301722 -7.15808405 -23.70425854 -6.09622629 0 0 Z " fill="#05B9CF" transform="translate(662,21)"/>
<path d="M0 0 C3.88912252 2.54473449 7.66227199 5.19880423 11.40209961 7.95727539 C31.26485007 22.56366666 52.04861633 36.01753052 73 49 C69.14702908 50.28432364 67.68711349 49.58019149 64 48 C63.4534375 47.42121094 62.906875 46.84242188 62.34375 46.24609375 C59.07105412 43.1097602 55.33092388 41.03972985 51.4375 38.75 C45.13869413 34.98196999 39.10844733 31.10014032 33.26171875 26.65625 C31.02251407 24.96142826 31.02251407 24.96142826 28.578125 23.55859375 C25.57714634 21.74436574 22.84980457 19.68974789 20.0625 17.5625 C16.97262334 15.20621986 13.90177879 12.91879855 10.62109375 10.83984375 C9.75613281 10.23269531 8.89117187 9.62554687 8 9 C8 8.34 8 7.68 8 7 C6.8553125 6.5978125 6.8553125 6.5978125 5.6875 6.1875 C3.11011382 5.04865495 1.73045136 4.18583329 0 2 C0 1.34 0 0.68 0 0 Z " fill="#0398C2" transform="translate(443,171)"/>
<path d="M0 0 C3.79714432 0.2588962 5.4981962 0.45391939 8.125 3.3125 C8.74375 4.199375 9.3625 5.08625 10 6 C11.051875 6.99 11.051875 6.99 12.125 8 C14.19710352 10.21024375 15.04888818 12.14666454 16 15 C17.11375 15.0825 18.2275 15.165 19.375 15.25 C23 16 23 16 24.4375 17.8125 C25 20 25 20 25 24 C25.99 24 26.98 24 28 24 C28.67220351 25.93558599 29.33758077 27.87354372 30 29.8125 C30.556875 31.43091797 30.556875 31.43091797 31.125 33.08203125 C32 36 32 36 32 39 C32.99 39.495 32.99 39.495 34 40 C34 40.66 34 41.32 34 42 C33.01 42 32.02 42 31 42 C30.46632813 40.92363281 29.93265625 39.84726563 29.3828125 38.73828125 C22.1695716 24.48069325 13.62856397 13.02477314 2 2 C1.34 1.34 0.68 0.68 0 0 Z " fill="#06C1D4" transform="translate(736,83)"/>
<path d="M0 0 C0.33 0 0.66 0 1 0 C2.58096692 24.90022893 -11.22572404 48.10500762 -26 67 C-26.99 66.67 -27.98 66.34 -29 66 C-28.38511719 65.20335937 -28.38511719 65.20335937 -27.7578125 64.390625 C-27.21898437 63.68421875 -26.68015625 62.9778125 -26.125 62.25 C-25.59132813 61.55390625 -25.05765625 60.8578125 -24.5078125 60.140625 C-23.10761086 58.15277397 -22.02144735 56.20156614 -21 54 C-20.34 54 -19.68 54 -19 54 C-19 53.01 -19 52.02 -19 51 C-18.54625 50.566875 -18.0925 50.13375 -17.625 49.6875 C-15.79413204 48.03195562 -15.79413204 48.03195562 -15.125 45.3125 C-14.15929219 42.46902701 -13.35137088 40.94686325 -11.6875 38.5625 C-4.46580466 27.30515139 -2.48776729 12.91137325 0 0 Z " fill="#067D9F" transform="translate(766,180)"/>
<path d="M0 0 C0.66 0 1.32 0 2 0 C2 0.66 2 1.32 2 2 C2.83144531 2.26167969 3.66289062 2.52335937 4.51953125 2.79296875 C8.33970786 4.11781114 11.99475613 5.67285955 15.6875 7.3125 C16.39156982 7.62155273 17.09563965 7.93060547 17.82104492 8.24902344 C21.84854113 10.02268406 25.83578397 11.86478447 29.8125 13.75 C37.73042749 17.35981747 45.87198194 19.01403573 54.40625 20.4609375 C58.13908461 21.23673746 61.48316409 22.54018132 65 24 C64.67 24.66 64.34 25.32 64 26 C56.22716381 25.48181092 49.4147864 23.44741667 42.0625 20.9375 C40.87261475 20.5355542 39.68272949 20.1336084 38.45678711 19.71948242 C28.69630036 16.36178001 19.27828573 12.51395397 10 8 C9.36916504 7.69368652 8.73833008 7.38737305 8.08837891 7.07177734 C4.70567196 5.41925938 1.34335214 3.7306764 -2 2 C-1.34 1.34 -0.68 0.68 0 0 Z " fill="#0682A7" transform="translate(496,265)"/>
<path d="M0 0 C5.28619301 1.48065357 10.46598746 3.15294376 15.6171875 5.0534668 C23.29368932 7.86788238 31.03236513 10.22253413 38.9375 12.3125 C39.88391357 12.56684814 40.83032715 12.82119629 41.80541992 13.08325195 C47.22448343 14.47971207 52.41435966 15.36538422 58.00610352 15.68041992 C60 16 60 16 62 18 C45.45764986 19.74470099 28.53259921 13.58580942 13.25 7.875 C12.37537109 7.55080078 11.50074219 7.22660156 10.59960938 6.89257812 C6.25843749 5.19265935 3.01129179 3.72275084 0 0 Z " fill="#0380A3" transform="translate(577,242)"/>
<path d="M0 0 C-0.69335449 0.28085449 -1.38670898 0.56170898 -2.10107422 0.85107422 C-15.86283013 6.45906369 -29.20543451 12.27133838 -42.01123047 19.83007812 C-44.00868362 21.00510826 -46.01873429 22.15474372 -48.03515625 23.296875 C-53.05765531 26.14181805 -58.05971711 29.01391404 -63 32 C-63.66 31.34 -64.32 30.68 -65 30 C-48.12668798 19.83812756 -31.32485488 9.79400344 -13.0625 2.3125 C-12.2154248 1.96082764 -11.36834961 1.60915527 -10.49560547 1.24682617 C-9.70428223 0.93463135 -8.91295898 0.62243652 -8.09765625 0.30078125 C-7.40164307 0.02403564 -6.70562988 -0.25270996 -5.98852539 -0.5378418 C-3.65832241 -1.07941015 -2.24602228 -0.74867409 0 0 Z " fill="#068AB6" transform="translate(544,29)"/>
<path d="M0 0 C0.6091626 0.19948242 1.2183252 0.39896484 1.84594727 0.60449219 C0.92813477 1.36632812 0.01032227 2.12816406 -0.93530273 2.91308594 C-15.81241877 15.37391325 -26.76184408 28.62637183 -33.96264648 46.74121094 C-35.15405273 49.60449219 -35.15405273 49.60449219 -37.15405273 52.60449219 C-37.58258294 47.31379236 -36.15437614 43.41451196 -33.90405273 38.72949219 C-33.55197754 37.99206787 -33.19990234 37.25464355 -32.8371582 36.49487305 C-26.59039384 23.976016 -17.56161682 12.91177654 -7.15405273 3.60449219 C-6.31745117 2.83621094 -5.48084961 2.06792969 -4.61889648 1.27636719 C-2.15405273 -0.39550781 -2.15405273 -0.39550781 0 0 Z " fill="#06248F" transform="translate(59.154052734375,87.3955078125)"/>
<path d="M0 0 C0.66 0 1.32 0 2 0 C2.20753906 0.59425781 2.41507812 1.18851563 2.62890625 1.80078125 C9.26999972 19.66782351 22.61243762 34.82465531 40 43 C40 43.66 40 44.32 40 45 C27.35448003 42.67133781 16.30471964 30.17610705 9.15234375 20.30859375 C0 6.23956443 0 6.23956443 0 0 Z " fill="#042393" transform="translate(80,183)"/>
<path d="M0 0 C3.49803111 0.64778354 5.97945576 2.17177585 9 4 C9.66 4 10.32 4 11 4 C11.26103516 4.60360352 11.52207031 5.20720703 11.79101562 5.82910156 C13.09095912 8.16332967 14.19637306 9.18245988 16.34375 10.734375 C17.34063843 11.46611938 17.34063843 11.46611938 18.35766602 12.21264648 C19.41812134 12.97363647 19.41812134 12.97363647 20.5 13.75 C21.95797264 14.81772614 23.41500528 15.88673704 24.87109375 16.95703125 C25.93432861 17.73554443 25.93432861 17.73554443 27.01904297 18.52978516 C29.5864404 20.43524083 32.07997866 22.42308933 34.5625 24.4375 C38.27846032 27.44925126 42.07368513 30.26865053 46 33 C45.34 33.66 44.68 34.32 44 35 C33.00376602 26.62059132 22.04827395 18.19130873 11.15625 9.67675781 C9.59919352 8.46594894 8.03589181 7.26315651 6.46875 6.06542969 C5.64375 5.43282227 4.81875 4.80021484 3.96875 4.1484375 C3.21013672 3.57013184 2.45152344 2.99182617 1.66992188 2.39599609 C1.11884766 1.93531738 0.56777344 1.47463867 0 1 C0 0.67 0 0.34 0 0 Z " fill="#0452B4" transform="translate(378,183)"/>
<path d="M0 0 C-0.33 0.33 -0.66 0.66 -1 1 C-0.45359863 0.9285376 0.09280273 0.8570752 0.65576172 0.78344727 C8.48425137 -0.12878769 16.25194648 -0.1132687 24.125 -0.0625 C25.47656083 -0.05747139 26.82812348 -0.05291091 28.1796875 -0.04882812 C31.45317265 -0.03713711 34.72656186 -0.02075029 38 0 C38 0.33 38 0.66 38 1 C25.64140327 1.93384895 25.64140327 1.93384895 19.484375 2.21875 C11.70025693 2.58387578 4.14749929 3.0819518 -3.51953125 4.59765625 C-6.05657804 5.00917723 -8.43453422 5.06908795 -11 5 C-11.33 5.66 -11.66 6.32 -12 7 C-14.97 6.505 -14.97 6.505 -18 6 C-15.23505248 4.15670166 -12.56049496 2.73217468 -9.5625 1.3125 C-8.61503906 0.85488281 -7.66757812 0.39726563 -6.69140625 -0.07421875 C-3.86646543 -1.04593279 -2.73374433 -1.06635417 0 0 Z " fill="#0694B1" transform="translate(581,80)"/>
<path d="M0 0 C-11.36562059 8.65402583 -11.36562059 8.65402583 -16.4375 11.9375 C-20.38676386 14.51720263 -24.13530012 17.31665586 -27.875 20.1875 C-28.43501709 20.61603271 -28.99503418 21.04456543 -29.57202148 21.48608398 C-32.20483484 23.52396548 -34.72785617 25.56102043 -37 28 C-37.66 27.67 -38.32 27.34 -39 27 C-37.44048019 22.40808056 -33.76093373 20.23493917 -30 17.5 C-29.30173096 16.98606689 -28.60346191 16.47213379 -27.8840332 15.94262695 C-22.38396969 11.93113785 -16.81185138 8.02249305 -11.1875 4.1875 C-10.41728516 3.65382813 -9.64707031 3.12015625 -8.85351562 2.5703125 C-8.13228516 2.08691406 -7.41105469 1.60351562 -6.66796875 1.10546875 C-6.03141357 0.67387451 -5.3948584 0.24228027 -4.73901367 -0.20239258 C-3 -1 -3 -1 0 0 Z " fill="#0465AE" transform="translate(481,61)"/>
<path d="M0 0 C-13.14582344 8.64624629 -26.52254529 16.88184122 -40 25 C-40.88526367 25.57685547 -41.77052734 26.15371094 -42.68261719 26.74804688 C-43.44735352 27.16119141 -44.21208984 27.57433594 -45 28 C-45.66 27.67 -46.32 27.34 -47 27 C-44.73843231 24.5348505 -42.4258855 22.94260398 -39.52734375 21.28515625 C-38.6357959 20.76904785 -37.74424805 20.25293945 -36.82568359 19.72119141 C-35.87258301 19.17382324 -34.91948242 18.62645508 -33.9375 18.0625 C-25.58130149 13.22310396 -17.48592947 8.14854251 -9.63647461 2.51977539 C-8.94948486 2.04145264 -8.26249512 1.56312988 -7.5546875 1.0703125 C-6.96155762 0.64508301 -6.36842773 0.21985352 -5.75732422 -0.21826172 C-3.48038556 -1.23114829 -2.30080924 -0.81454081 0 0 Z " fill="#052894" transform="translate(340,173)"/>
<path d="M0 0 C3.91977322 1.69219478 7.07223508 4.28803932 10.375 6.9375 C11.63145432 7.9349665 12.88796636 8.9323603 14.14453125 9.9296875 C14.78471191 10.43983398 15.42489258 10.94998047 16.08447266 11.47558594 C19.06781024 13.84978424 22.0647605 16.20653127 25.0625 18.5625 C25.91835693 19.23720337 25.91835693 19.23720337 26.79150391 19.92553711 C29.74126044 22.24641789 32.70609599 24.54384745 35.69921875 26.80859375 C36.29532959 27.26097412 36.89144043 27.71335449 37.50561523 28.17944336 C38.63873217 29.03725015 39.77481074 29.89116376 40.91430664 30.74047852 C43.50792466 32.70534065 45.17021267 34.255319 47 37 C43.23629063 35.67475022 40.55521106 34.05298458 37.5 31.5 C33.62216738 28.31155984 29.68789869 25.21972188 25.6875 22.1875 C20.46891812 18.21520451 15.43468385 14.06186082 10.48901367 9.75463867 C7.96356763 7.57399673 5.43435269 5.58902684 2.62109375 3.8046875 C1.75613281 3.20914063 0.89117187 2.61359375 0 2 C0 1.34 0 0.68 0 0 Z " fill="#016AC3" transform="translate(396,135)"/>
<path d="M0 0 C11.79170658 3.53751197 22.95514739 10.70353945 32 19 C32 19.66 32 20.32 32 21 C33.32 21.66 34.64 22.32 36 23 C36 23.99 36 24.98 36 26 C31.81186128 22.88457256 27.65754653 19.73710544 23.5625 16.5 C16.06566892 10.6848211 8.98356173 6.18832045 0 3 C0 2.01 0 1.02 0 0 Z " fill="#05BBCF" transform="translate(703,72)"/>
<path d="M0 0 C1 2 1 2 0.22265625 4.3828125 C-0.8515625 6.921875 -1.92578125 9.4609375 -3 12 C-0.36 8.7 2.28 5.4 5 2 C5.33 2.99 5.66 3.98 6 5 C4.7421875 6.9453125 4.7421875 6.9453125 2.875 9.125 C-1.81225521 14.86946048 -5.51171288 20.98755448 -8 28 C-8.99 27.67 -9.98 27.34 -11 27 C-10.09102442 24.16399619 -9.17309278 21.33140959 -8.25 18.5 C-7.87101562 17.31277344 -7.87101562 17.31277344 -7.484375 16.1015625 C-3.2808689 3.2808689 -3.2808689 3.2808689 0 0 Z " fill="#072E99" transform="translate(26,96)"/>
<path d="M0 0 C0.66 0 1.32 0 2 0 C2 0.66 2 1.32 2 2 C2.825 2.185625 3.65 2.37125 4.5 2.5625 C8.41522372 4.17053831 10.64657459 6.16599002 13.72265625 9 C17.10671602 11.97193585 20.77272483 14.51572401 24.43359375 17.1328125 C27.41221995 19.29991041 30.21513697 21.59146981 33 24 C32.01 24.33 31.02 24.66 30 25 C28.08984375 23.95532227 28.08984375 23.95532227 25.9375 22.31640625 C25.14512939 21.72190674 24.35275879 21.12740723 23.53637695 20.51489258 C22.69937256 19.87060303 21.86236816 19.22631348 21 18.5625 C19.28555624 17.26509627 17.57071411 15.96821878 15.85546875 14.671875 C15.02450684 14.03958984 14.19354492 13.40730469 13.33740234 12.75585938 C11.34849063 11.26178657 9.34278558 9.81064943 7.30078125 8.390625 C6.31464844 7.70484375 5.32851563 7.0190625 4.3125 6.3125 C3.46300781 5.73113281 2.61351562 5.14976563 1.73828125 4.55078125 C1.16464844 4.03902344 0.59101563 3.52726562 0 3 C0 2.01 0 1.02 0 0 Z " fill="#043699" transform="translate(401,121)"/>
<path d="M0 0 C1.11375 0.00507568 1.11375 0.00507568 2.25 0.01025391 C17.64333245 0.15072787 17.64333245 0.15072787 24.1875 1.125 C24.6825 2.115 24.6825 2.115 25.1875 3.125 C12.6475 3.125 0.1075 3.125 -12.8125 3.125 C-11.8125 1.125 -11.8125 1.125 -10.23828125 0.5078125 C-6.82566728 -0.03073206 -3.44491659 -0.02241979 0 0 Z " fill="#06299B" transform="translate(131.8125,63.875)"/>
<path d="M0 0 C-1.47793991 4.62384058 -5.30337482 6.31758644 -9.25 8.625 C-17.12731542 13.37402935 -24.58951207 18.55792293 -32 24 C-32.33 23.01 -32.66 22.02 -33 21 C-29.44651273 17.94234816 -26.05900086 15.35988422 -22 13 C-20.62028223 12.09044975 -19.24586546 11.17283838 -17.875 10.25 C-14.2868573 7.84986421 -10.68622049 5.47115717 -7.0625 3.125 C-6.14597656 2.52945313 -5.22945313 1.93390625 -4.28515625 1.3203125 C-2 0 -2 0 0 0 Z " fill="#045FA9" transform="translate(503,109)"/>
<path d="M0 0 C0.556875 0.226875 1.11375 0.45375 1.6875 0.6875 C-0.43482979 1.85926518 -2.56007791 3.02504785 -4.6875 4.1875 C-5.29078125 4.52136719 -5.8940625 4.85523438 -6.515625 5.19921875 C-11.0859375 7.6875 -11.0859375 7.6875 -13.3125 7.6875 C-13.3125 8.3475 -13.3125 9.0075 -13.3125 9.6875 C-13.88355469 9.90664062 -14.45460938 10.12578125 -15.04296875 10.3515625 C-21.36378927 12.82361631 -27.49803886 15.59664823 -33.625 18.515625 C-36.3125 19.6875 -36.3125 19.6875 -38.3125 19.6875 C-38.3125 19.0275 -38.3125 18.3675 -38.3125 17.6875 C-37.39960205 17.24881592 -36.4867041 16.81013184 -35.54614258 16.3581543 C-32.14376891 14.72239282 -28.74292782 13.08346642 -25.3425293 11.44360352 C-23.87354149 10.73571409 -22.40414524 10.02867158 -20.93432617 9.32250977 C-18.81580119 8.30449861 -16.69878736 7.28340186 -14.58203125 6.26171875 C-13.92975052 5.94909592 -13.27746979 5.63647308 -12.60542297 5.31437683 C-9.81736732 3.96551478 -7.1362929 2.57819924 -4.50268555 0.94458008 C-2.3125 -0.3125 -2.3125 -0.3125 0 0 Z " fill="#052896" transform="translate(289.3125,202.3125)"/>
<path d="M0 0 C1.67828651 0.10190256 3.35667925 0.20206589 5.03515625 0.30078125 C5.94152832 0.35443848 6.84790039 0.4080957 7.78173828 0.46337891 C13.33102018 0.76553589 18.88426635 0.97269464 24.4375 1.1875 C26.11344238 1.25300049 26.11344238 1.25300049 27.82324219 1.31982422 C30.46545637 1.42259075 33.10770423 1.52435652 35.75 1.625 C35.75 1.955 35.75 2.285 35.75 2.625 C27.32448226 3.52729307 19.14611736 3.65017113 10.6875 3.25 C9.59373047 3.20617187 8.49996094 3.16234375 7.37304688 3.1171875 C0.47562881 2.82175972 -6.38132608 2.31762494 -13.25 1.625 C-13.25 1.295 -13.25 0.965 -13.25 0.625 C-8.77793174 -0.55464005 -4.56185071 -0.31039199 0 0 Z " fill="#088BA2" transform="translate(591.25,293.375)"/>
<path d="M0 0 C1 3 1 3 0.1015625 5.27734375 C-3.49680475 11.7601165 -7.52043467 17.6182489 -12.046875 23.46875 C-13.43129056 25.26295257 -14.74292534 27.114388 -16 29 C-16.99 28.67 -17.98 28.34 -19 28 C-18.59007812 27.46890625 -18.18015625 26.9378125 -17.7578125 26.390625 C-17.21898437 25.68421875 -16.68015625 24.9778125 -16.125 24.25 C-15.59132813 23.55390625 -15.05765625 22.8578125 -14.5078125 22.140625 C-13.10761086 20.15277397 -12.02144735 18.20156614 -11 16 C-10.34 16 -9.68 16 -9 16 C-9 15.01 -9 14.02 -9 13 C-8.54625 12.566875 -8.0925 12.13375 -7.625 11.6875 C-5.76224187 10.00178562 -5.76224187 10.00178562 -5.0625 7.0625 C-3.91325863 3.74998077 -2.61732924 2.26835201 0 0 Z " fill="#056F93" transform="translate(756,218)"/>
<path d="M0 0 C1.485 0.495 1.485 0.495 3 1 C-4.83879988 9.18016697 -12.64864053 16.54026658 -22 23 C-23.04285156 23.76183594 -24.08570313 24.52367187 -25.16015625 25.30859375 C-26.09730469 25.86675781 -27.03445313 26.42492187 -28 27 C-28.99 26.67 -29.98 26.34 -31 26 C-30.49549316 25.65219482 -29.99098633 25.30438965 -29.47119141 24.94604492 C-27.18520819 23.3654463 -24.90508463 21.77659435 -22.625 20.1875 C-21.43390625 19.36668945 -21.43390625 19.36668945 -20.21875 18.52929688 C-19.45820312 17.99755859 -18.69765625 17.46582031 -17.9140625 16.91796875 C-17.2123291 16.43094482 -16.5105957 15.9439209 -15.78759766 15.44213867 C-13.74463826 13.9411923 -13.74463826 13.9411923 -12 11 C-11.278125 10.608125 -10.55625 10.21625 -9.8125 9.8125 C-5.78038604 7.21402656 -3.03208807 3.67870051 0 0 Z " fill="#068AA6" transform="translate(736,247)"/>
<path d="M0 0 C0.68827881 -0.00451172 1.37655762 -0.00902344 2.08569336 -0.01367188 C6.84062508 0.00004263 11.41632059 0.46136062 16.125 1.125 C16.125 1.455 16.125 1.785 16.125 2.125 C15.43873535 2.15005615 14.7524707 2.1751123 14.04541016 2.20092773 C10.94674183 2.31671427 7.84839077 2.43951885 4.75 2.5625 C3.66976562 2.60181641 2.58953125 2.64113281 1.4765625 2.68164062 C0.4453125 2.72353516 -0.5859375 2.76542969 -1.6484375 2.80859375 C-2.60153809 2.84525146 -3.55463867 2.88190918 -4.53662109 2.91967773 C-6.89632349 2.98263465 -6.89632349 2.98263465 -8.875 4.125 C-11.25754272 3.87646137 -13.63263363 3.55336571 -16 3.1875 C-17.28132812 2.99285156 -18.56265625 2.79820313 -19.8828125 2.59765625 C-20.87023437 2.44167969 -21.85765625 2.28570313 -22.875 2.125 C-22.875 1.795 -22.875 1.465 -22.875 1.125 C-15.24247427 0.44762846 -7.66052862 0.02039409 0 0 Z " fill="#08A9C0" transform="translate(612.875,14.875)"/>
<path d="M0 0 C5.41041436 8.11562154 3.67730709 21.2539463 2 30.4375 C1.68059673 31.96131977 1.35308399 33.48363038 1 35 C-1.30661379 31.54007931 -1.13387958 31.00348961 -0.625 27.0625 C0.31864519 18.05901471 0.08039905 9.04042699 0 0 Z " fill="#048BAD" transform="translate(707,149)"/>
<path d="M0 0 C-0.33 0.99 -0.66 1.98 -1 3 C-1.55042969 2.89042969 -2.10085938 2.78085937 -2.66796875 2.66796875 C-12.72208575 0.75067202 -22.86489829 -0.59144527 -33 -2 C-33 -2.33 -33 -2.66 -33 -3 C-22.91377987 -6.02586604 -10.12422469 -1.75354219 0 0 Z " fill="#08B6CB" transform="translate(699,59)"/>
<path d="M0 0 C3.8441987 1.36214804 6.74713705 3.11025111 9.9765625 5.58984375 C10.894375 6.29173828 11.8121875 6.99363281 12.7578125 7.71679688 C13.70398438 8.44962891 14.65015625 9.18246094 15.625 9.9375 C16.57890625 10.66646484 17.5328125 11.39542969 18.515625 12.14648438 C26.17852558 18.03396644 26.17852558 18.03396644 29 21 C24.75791473 20.42533328 21.72759495 17.90185493 18.375 15.4375 C17.76052002 14.99148437 17.14604004 14.54546875 16.51293945 14.0859375 C1.59050253 3.18100507 1.59050253 3.18100507 0 0 Z " fill="#0567A7" transform="translate(423,217)"/>
<path d="M0 0 C2.29296875 0.3203125 2.29296875 0.3203125 5 1 C6.29357422 1.21269531 6.29357422 1.21269531 7.61328125 1.4296875 C13.41587108 2.38698886 18.56759523 3.74503953 24 6 C23.67 6.66 23.34 7.32 23 8 C14.20753786 7.52897524 6.29384797 4.75783166 -2 2 C-1.34 1.34 -0.68 0.68 0 0 Z " fill="#0691B1" transform="translate(537,283)"/>
<path d="M0 0 C6.29209202 0.43236799 11.93036245 1.23428726 18 3 C20.62033468 3.28585469 23.23242887 3.49509518 25.86328125 3.65625 C28 4 28 4 30 6 C22.4456372 6.4656799 15.5661758 5.95900071 8.25 4.125 C7.54681641 3.95129883 6.84363281 3.77759766 6.11914062 3.59863281 C4.39200663 3.13743859 2.69208721 2.57665659 1 2 C0.67 1.34 0.34 0.68 0 0 Z " fill="#03759A" transform="translate(609,254)"/>
<path d="M0 0 C5.13708186 3.36966141 10.13818567 6.91242232 15.125 10.5 C15.92292969 11.06847656 16.72085937 11.63695312 17.54296875 12.22265625 C21.30582911 14.93015677 24.86962102 17.54812264 28 21 C23.92730206 20.4631769 21.70404355 19.30265301 18.5625 16.6875 C15.9211138 14.53198751 13.32809142 12.49583207 10.4375 10.6875 C9.633125 10.130625 8.82875 9.57375 8 9 C8 8.34 8 7.68 8 7 C6.8553125 6.5978125 6.8553125 6.5978125 5.6875 6.1875 C3.11011382 5.04865495 1.73045136 4.18583329 0 2 C0 1.34 0 0.68 0 0 Z " fill="#0284C1" transform="translate(443,171)"/>
<path d="M0 0 C8.33639002 0.63195215 16.66950287 1.29453448 25 2 C25.33 2.99 25.66 3.98 26 5 C17.21392344 4.50610812 8.64998215 3.63177319 0 2 C0 1.34 0 0.68 0 0 Z " fill="#0382A4" transform="translate(579,237)"/>
<path d="M0 0 C0 0.66 0 1.32 0 2 C-1.46875 3.4453125 -1.46875 3.4453125 -3.5 5.125 C-7.90524012 8.8615876 -11.96599235 12.86943366 -16 17 C-16.66 16.01 -17.32 15.02 -18 14 C-4.63959391 0 -4.63959391 0 0 0 Z " fill="#0445A6" transform="translate(420,106)"/>
<path d="M0 0 C0.66 0.66 1.32 1.32 2 2 C-18.295 1.505 -18.295 1.505 -39 1 C-39 0.67 -39 0.34 -39 0 C-9.47945037 -1.61741364 -9.47945037 -1.61741364 0 0 Z " fill="#0643B6" transform="translate(160,56)"/>
<path d="M0 0 C0.66 0 1.32 0 2 0 C0.61806472 3.05516083 -1.00476308 5.32959161 -3.25 7.8125 C-3.86488281 8.49957031 -4.47976563 9.18664062 -5.11328125 9.89453125 C-5.73589844 10.58933594 -6.35851562 11.28414062 -7 12 C-8.14967801 13.33001966 -9.2958399 14.66309162 -10.4375 16 C-11.283125 16.99 -12.12875 17.98 -13 19 C-14 16 -14 16 -12.6875 13.3125 C-12.130625 12.549375 -11.57375 11.78625 -11 11 C-10.34 11 -9.68 11 -9 11 C-8.67 10.01 -8.34 9.02 -8 8 C-7.34 8 -6.68 8 -6 8 C-6 7.34 -6 6.68 -6 6 C-4.37550757 4.29220027 -2.70779973 2.62449243 -1 1 C-0.67 0.67 -0.34 0.34 0 0 Z " fill="#0199C2" transform="translate(740,239)"/>
<path d="M0 0 C0.88300781 0.00902344 1.76601562 0.01804687 2.67578125 0.02734375 C3.67158203 0.04474609 3.67158203 0.04474609 4.6875 0.0625 C4.6875 0.3925 4.6875 0.7225 4.6875 1.0625 C1.16774931 1.87973775 -2.35347863 2.69042922 -5.875 3.5 C-7.3609668 3.84514648 -7.3609668 3.84514648 -8.87695312 4.19726562 C-14.01175697 5.3743469 -19.08228006 6.42431047 -24.3125 7.0625 C-24.3125 6.4025 -24.3125 5.7425 -24.3125 5.0625 C-22.08405786 4.4141711 -19.8547154 3.76893631 -17.625 3.125 C-15.76294922 2.58552734 -15.76294922 2.58552734 -13.86328125 2.03515625 C-9.10310157 0.73121264 -4.9403795 -0.06587173 0 0 Z " fill="#052694" transform="translate(112.3125,65.9375)"/>
<path d="M0 0 C2.6796875 0.4609375 2.6796875 0.4609375 5.875 1.375 C9.52473822 2.40625281 12.17110768 3 16 3 C17.5625 4.375 17.5625 4.375 19 6 C19.99 6.66 20.98 7.32 22 8 C18.46624203 9.17791932 17.55148893 8.75415072 14.11328125 7.56640625 C13.17548828 7.24736328 12.23769531 6.92832031 11.27148438 6.59960938 C10.29501953 6.25736328 9.31855469 5.91511719 8.3125 5.5625 C7.32443359 5.22412109 6.33636719 4.88574219 5.31835938 4.53710938 C2.87602435 3.69940026 0.43687729 2.85342917 -2 2 C-1.34 1.34 -0.68 0.68 0 0 Z " fill="#08B8CD" transform="translate(664,22)"/>
<path d="M0 0 C0.84820313 0.19980469 1.69640625 0.39960938 2.5703125 0.60546875 C3.41335938 0.79753906 4.25640625 0.98960937 5.125 1.1875 C5.97320313 1.38730469 6.82140625 1.58710938 7.6953125 1.79296875 C9.36081579 2.13206707 11.02716784 2.46711253 12.6953125 2.79296875 C12.0353125 3.45296875 11.3753125 4.11296875 10.6953125 4.79296875 C7.0703125 4.41796875 7.0703125 4.41796875 3.6953125 3.79296875 C3.3653125 4.45296875 3.0353125 5.11296875 2.6953125 5.79296875 C-3.0546875 4.04296875 -3.0546875 4.04296875 -5.3046875 1.79296875 C-2.3046875 -0.20703125 -2.3046875 -0.20703125 0 0 Z " fill="#028FAF" transform="translate(568.3046875,233.20703125)"/>
<path d="M0 0 C4.32955649 0.52386093 6.57673555 1.94700209 9.875 4.75 C13.81224998 8.02711226 17.7960277 11.07549753 22 14 C21.34 14.66 20.68 15.32 20 16 C17.22635788 13.89951549 14.45659126 11.79397928 11.6875 9.6875 C10.90181641 9.09259766 10.11613281 8.49769531 9.30664062 7.88476562 C8.54931641 7.30791016 7.79199219 6.73105469 7.01171875 6.13671875 C6.31522217 5.60780029 5.61872559 5.07888184 4.90112305 4.53393555 C3.14170426 3.11433516 1.5625974 1.63100112 0 0 Z " fill="#055DAF" transform="translate(402,202)"/>
<path d="M0 0 C0 0.66 0 1.32 0 2 C-3.58326501 2.05814085 -7.16640838 2.09364357 -10.75 2.125 C-11.76578125 2.14175781 -12.7815625 2.15851563 -13.828125 2.17578125 C-14.8078125 2.18222656 -15.7875 2.18867188 -16.796875 2.1953125 C-18.14797363 2.21102295 -18.14797363 2.21102295 -19.52636719 2.22705078 C-22.13926856 1.98721676 -23.75664666 1.32312064 -26 0 C-17.15967082 -0.77546747 -8.83223535 -1.19354532 0 0 Z " fill="#07608C" transform="translate(667,260)"/>
<path d="M0 0 C-1.9137069 1.46236093 -3.83075233 2.91994246 -5.75 4.375 C-6.55824219 4.99375 -6.55824219 4.99375 -7.3828125 5.625 C-10.14944813 7.71684645 -12.8209088 9.59564418 -16 11 C-16.66 10.34 -17.32 9.68 -18 9 C-15.57058047 7.29970515 -13.13271588 5.61479684 -10.6875 3.9375 C-9.99720703 3.45216797 -9.30691406 2.96683594 -8.59570312 2.46679688 C-7.92861328 2.01240234 -7.26152344 1.55800781 -6.57421875 1.08984375 C-5.96151123 0.66566162 -5.34880371 0.24147949 -4.7175293 -0.19555664 C-3 -1 -3 -1 0 0 Z " fill="#0373B2" transform="translate(481,61)"/>
<path d="M0 0 C5.08648251 4.60962477 9.5335504 10.07585598 13 16 C12.67 16.99 12.34 17.98 12 19 C11.42765625 18.27941406 10.8553125 17.55882813 10.265625 16.81640625 C8.81727115 15.01595259 7.35012761 13.23035186 5.859375 11.46484375 C4.81523438 10.21380859 4.81523438 10.21380859 3.75 8.9375 C3.04359375 8.10089844 2.3371875 7.26429687 1.609375 6.40234375 C0 4 0 4 0 0 Z " fill="#06B8CC" transform="translate(741,98)"/>
<path d="M0 0 C-2.65740728 1.35475665 -5.32272995 2.68519824 -8 4 C-9.09570312 4.54011719 -10.19140625 5.08023438 -11.3203125 5.63671875 C-12.47273437 6.18972656 -13.62515625 6.74273437 -14.8125 7.3125 C-15.91207031 7.84488281 -17.01164063 8.37726563 -18.14453125 8.92578125 C-21 10 -21 10 -24 9 C-20.25427854 5.76369666 -15.96368461 4.10630863 -11.4375 2.25 C-10.28604492 1.75693359 -10.28604492 1.75693359 -9.11132812 1.25390625 C-8.37205078 0.94839844 -7.63277344 0.64289063 -6.87109375 0.328125 C-6.20005615 0.0487207 -5.52901855 -0.23068359 -4.83764648 -0.51855469 C-3 -1 -3 -1 0 0 Z " fill="#0791B2" transform="translate(581,69)"/>
<path d="M0 0 C7.58108456 3.20803133 13.40408912 11.7908902 17 19 C17 19.66 17 20.32 17 21 C16.34 21 15.68 21 15 21 C13.89208433 19.39801383 12.86457308 17.74017158 11.875 16.0625 C8.83574618 11.11651431 5.46872728 6.90782682 1.50390625 2.6796875 C0 1 0 1 0 0 Z " fill="#069FB7" transform="translate(682,106)"/>
<path d="M0 0 C0 0.66 0 1.32 0 2 C-2.35283375 2.65104151 -4.70708449 3.29592122 -7.0625 3.9375 C-7.71927734 4.11990234 -8.37605469 4.30230469 -9.05273438 4.49023438 C-13.3587782 5.65689649 -17.57159654 6.45292805 -22 7 C-15.91326163 1.67410393 -7.89805295 0 0 0 Z " fill="#062694" transform="translate(147,83)"/>
<path d="M0 0 C0 0.33 0 0.66 0 1 C-7.60298267 3.48260659 -15.10311193 3.18508331 -23 3 C-22.67 2.34 -22.34 1.68 -22 1 C-14.8320953 -0.40184114 -7.27319321 -0.12661265 0 0 Z " fill="#042393" transform="translate(205,236)"/>
<path d="M0 0 C6.75 1.75 6.75 1.75 9 4 C9.680625 4.165 10.36125 4.33 11.0625 4.5 C12.0215625 4.7475 12.0215625 4.7475 13 5 C13.33 5.66 13.66 6.32 14 7 C16.01669827 8.13350534 16.01669827 8.13350534 18 9 C17.34 9.66 16.68 10.32 16 11 C15.35933594 10.60167969 14.71867188 10.20335938 14.05859375 9.79296875 C9.14423182 6.78283052 4.36809475 4.10055882 -1 2 C-0.67 1.34 -0.34 0.68 0 0 Z " fill="#06BBCC" transform="translate(710,65)"/>
<path d="M0 0 C2 1 2 1 2.8515625 3.1796875 C3.10679687 4.06914063 3.36203125 4.95859375 3.625 5.875 C4.01558594 7.20144531 4.01558594 7.20144531 4.4140625 8.5546875 C5 11 5 11 5 14 C5.66 14.33 6.32 14.66 7 15 C7 15.66 7 16.32 7 17 C6.01 17 5.02 17 4 17 C0.61504892 11.55464391 0.32626495 6.32278971 0 0 Z " fill="#109FB2" transform="translate(763,108)"/>
<path d="M0 0 C5.28137429 0.51525603 8.57221156 2.25477117 13 5 C13 5.33 13 5.66 13 6 C11.3745692 5.85904936 9.74965949 5.71207913 8.125 5.5625 C7.22007812 5.48128906 6.31515625 5.40007812 5.3828125 5.31640625 C3 5 3 5 1 4 C0.375 1.9375 0.375 1.9375 0 0 Z " fill="#0F3693" transform="translate(202,80)"/>
<path d="M0 0 C-6.93781214 3.46890607 -18.49632918 0.74504533 -26 0 C-26 -0.33 -26 -0.66 -26 -1 C-22.22999352 -1.22567411 -18.45908213 -1.42755846 -14.6875 -1.625 C-13.0797168 -1.72167969 -13.0797168 -1.72167969 -11.43945312 -1.8203125 C-9.89741211 -1.89765625 -9.89741211 -1.89765625 -8.32421875 -1.9765625 C-6.9024231 -2.05511475 -6.9024231 -2.05511475 -5.4519043 -2.13525391 C-3 -2 -3 -2 0 0 Z " fill="#041A8B" transform="translate(181,239)"/>
<path d="M0 0 C1.32547852 0.07831055 1.32547852 0.07831055 2.67773438 0.15820312 C4.84800408 0.28724619 7.01780693 0.42409956 9.1875 0.5625 C9.1875 0.8925 9.1875 1.2225 9.1875 1.5625 C1.02132806 2.40638104 -6.66247076 2.62412705 -14.8125 1.5625 C-14.8125 1.2325 -14.8125 0.9025 -14.8125 0.5625 C-9.85765817 -0.82239368 -5.06660852 -0.32870615 0 0 Z " fill="#079BB6" transform="translate(592.8125,293.4375)"/>
<path d="M0 0 C1.20366211 0.14501953 1.20366211 0.14501953 2.43164062 0.29296875 C3.26501953 0.40511719 4.09839844 0.51726562 4.95703125 0.6328125 C5.80201172 0.73722656 6.64699219 0.84164063 7.51757812 0.94921875 C9.602874 1.20840807 11.68640061 1.48176053 13.76953125 1.7578125 C13.76953125 2.0878125 13.76953125 2.4178125 13.76953125 2.7578125 C6.35053705 3.99431153 0.11467536 3.26164065 -7.23046875 1.7578125 C-3.98693619 -0.40454254 -3.61102394 -0.46098178 0 0 Z " fill="#0896B3" transform="translate(567.23046875,290.2421875)"/>
<path d="M0 0 C4.31931387 0.61611835 8.25208775 1.64238578 12.375 3.0625 C13.43460938 3.42472656 14.49421875 3.78695312 15.5859375 4.16015625 C16.38257813 4.43730469 17.17921875 4.71445313 18 5 C18 5.66 18 6.32 18 7 C11.92218211 6.4714941 6.45399675 4.76879145 1 2 C0.67 1.34 0.34 0.68 0 0 Z " fill="#052394" transform="translate(121,228)"/>
<path d="M0 0 C1.485 0.99 1.485 0.99 3 2 C3 2.66 3 3.32 3 4 C3.99 4.33 4.98 4.66 6 5 C7.01674053 6.67270217 8.02565063 8.35222935 8.94921875 10.078125 C10.46120778 12.84354732 12.22330161 15.39840593 14 18 C13.67 18.66 13.34 19.32 13 20 C12.31292969 19.03578125 11.62585938 18.0715625 10.91796875 17.078125 C10.00783788 15.80206523 9.09768022 14.52602457 8.1875 13.25 C7.50977539 12.29867187 7.50977539 12.29867187 6.81835938 11.328125 C6.37685547 10.709375 5.93535156 10.090625 5.48046875 9.453125 C5.0529834 8.85306641 4.62549805 8.25300781 4.18505859 7.63476562 C3.21156029 6.29184337 2.19879223 4.97747359 1.17578125 3.671875 C0 2 0 2 0 0 Z " fill="#07A9BB" transform="translate(749,94)"/>
<path d="M0 0 C-2.62035018 1.36389525 -5.24556999 2.71632173 -7.875 4.0625 C-8.99455078 4.64741211 -8.99455078 4.64741211 -10.13671875 5.24414062 C-10.85214844 5.60830078 -11.56757812 5.97246094 -12.3046875 6.34765625 C-13.2944458 6.85824585 -13.2944458 6.85824585 -14.30419922 7.37915039 C-14.86381348 7.58403076 -15.42342773 7.78891113 -16 8 C-16.66 7.67 -17.32 7.34 -18 7 C-15.54234547 4.18652343 -12.93721011 2.80685406 -9.5625 1.25 C-8.61503906 0.80140625 -7.66757813 0.3528125 -6.69140625 -0.109375 C-3.78195345 -1.07215474 -2.83031412 -0.85856257 0 0 Z " fill="#062594" transform="translate(87,74)"/>
<path d="M0 0 C0.66 0.33 1.32 0.66 2 1 C-1.3 4.96 -4.6 8.92 -8 13 C-8.33 12.34 -8.66 11.68 -9 11 C-8.22265625 8.8359375 -8.22265625 8.8359375 -7.0625 6.375 C-6.68222656 5.55773437 -6.30195313 4.74046875 -5.91015625 3.8984375 C-5.60980469 3.27195312 -5.30945313 2.64546875 -5 2 C-4.01 2.33 -3.02 2.66 -2 3 C-2 2.34 -2 1.68 -2 1 C-1.34 0.67 -0.68 0.34 0 0 Z " fill="#023DC5" transform="translate(31,96)"/>
<path d="M0 0 C-0.33 1.32 -0.66 2.64 -1 4 C-4.63 3.67 -8.26 3.34 -12 3 C-12 2.67 -12 2.34 -12 2 C-10.35 1.67 -8.7 1.34 -7 1 C-7.66 0.34 -8.32 -0.32 -9 -1 C-5.22102349 -2.0497157 -3.35080929 -2.10976881 0 0 Z " fill="#0737A9" transform="translate(204,80)"/>
<path d="M0 0 C2.27804239 2.87928525 4.04034684 5.7830329 5.6875 9.0625 C6.12449219 9.91972656 6.56148437 10.77695313 7.01171875 11.66015625 C8 14 8 14 8 17 C7.34 17 6.68 17 6 17 C5.74605469 16.32453125 5.49210938 15.6490625 5.23046875 14.953125 C4.88628906 14.06109375 4.54210937 13.1690625 4.1875 12.25 C3.85105469 11.36828125 3.51460937 10.4865625 3.16796875 9.578125 C2.1053141 6.95455325 2.1053141 6.95455325 0.30078125 4.859375 C-0.12847656 4.24578125 -0.55773437 3.6321875 -1 3 C-0.67 2.01 -0.34 1.02 0 0 Z " fill="#05B3C6" transform="translate(755,90)"/>
<path d="M0 0 C-3.67807537 1.22602512 -5.88243927 0.70295577 -9.6875 0.0625 C-10.86699219 -0.13214844 -12.04648437 -0.32679687 -13.26171875 -0.52734375 C-14.16535156 -0.68332031 -15.06898438 -0.83929688 -16 -1 C-16 -1.33 -16 -1.66 -16 -2 C-10.38362811 -3.57960459 -4.91201114 -3.27467409 0 0 Z " fill="#06B5CC" transform="translate(690,68)"/>
<path d="M0 0 C-0.33 0.66 -0.66 1.32 -1 2 C-3.65234375 2.703125 -3.65234375 2.703125 -6.9375 3.25 C-8.01902344 3.44078125 -9.10054687 3.6315625 -10.21484375 3.828125 C-11.59349609 3.91320312 -11.59349609 3.91320312 -13 4 C-13.66 3.34 -14.32 2.68 -15 2 C-9.75614911 0.2520497 -5.52677733 -0.19392201 0 0 Z " fill="#03A0BD" transform="translate(706,263)"/>
<path d="M0 0 C-0.33 0.66 -0.66 1.32 -1 2 C-2.65 2 -4.3 2 -6 2 C-6.33 2.66 -6.66 3.32 -7 4 C-9.97 3.505 -9.97 3.505 -13 3 C-8.02535093 -0.31643271 -6.03086207 -1.37065047 0 0 Z " fill="#0A8BA8" transform="translate(576,83)"/>
<path d="M0 0 C0.99 0 1.98 0 3 0 C2.34 2.97 1.68 5.94 1 9 C-0.32 9.33 -1.64 9.66 -3 10 C-2.01 6.7 -1.02 3.4 0 0 Z " fill="#0C287D" transform="translate(18,114)"/>
<path d="M0 0 C5.445 1.485 5.445 1.485 11 3 C10.67 3.66 10.34 4.32 10 5 C6.0507432 4.44894091 2.65079826 3.61064629 -1 2 C-0.67 1.34 -0.34 0.68 0 0 Z " fill="#05B7CD" transform="translate(691,68)"/>
<path d="M0 0 C5.21979128 -0.1799928 9.07262981 0.02905192 14 2 C14 2.33 14 2.66 14 3 C8.80790596 3.21192221 4.873261 2.5912689 0 1 C0 0.67 0 0.34 0 0 Z " fill="#052495" transform="translate(140,235)"/>
<path d="M0 0 C-2.85306797 2.32472205 -5.54074837 3.7508258 -9 5 C-9 3.68 -9 2.36 -9 1 C-5.64919071 -1.10976881 -3.77897651 -1.0497157 0 0 Z " fill="#0539B3" transform="translate(74,68)"/>
<path d="M0 0 C1.26328125 0.01804688 2.5265625 0.03609375 3.828125 0.0546875 C4.79234375 0.07789063 5.7565625 0.10109375 6.75 0.125 C6.75 0.455 6.75 0.785 6.75 1.125 C4.87739946 1.49164185 3.00175307 1.84274366 1.125 2.1875 C0.08085938 2.38472656 -0.96328125 2.58195312 -2.0390625 2.78515625 C-5.35477629 3.13608946 -8.00401145 2.8219615 -11.25 2.125 C-7.54583874 -0.25090142 -4.32015427 -0.08000286 0 0 Z " fill="#06B3CA" transform="translate(662.25,62.875)"/>
<path d="M0 0 C2.51083114 1.25541557 2.87125446 2.50063488 4 5 C3.01 5 2.02 5 1 5 C-1.20142332 7.4390706 -1.20142332 7.4390706 -3 10 C-3.66 9.67 -4.32 9.34 -5 9 C-4.319375 8.1646875 -4.319375 8.1646875 -3.625 7.3125 C-1.96266232 4.94686561 -0.97855457 2.70984342 0 0 Z " fill="#0281A9" transform="translate(739,235)"/>
<path d="M0 0 C0.66 0.33 1.32 0.66 2 1 C-0.25740623 3.33524782 -2.2805761 5.18705073 -5 7 C-6.32 6.67 -7.64 6.34 -9 6 C-6.03 4.02 -3.06 2.04 0 0 Z " fill="#052E9F" transform="translate(68,80)"/>
<path d="M0 0 C0.99 0.33 1.98 0.66 3 1 C3 1.66 3 2.32 3 3 C4.32 3.66 5.64 4.32 7 5 C7 5.99 7 6.98 7 8 C4.03 6.02 1.06 4.04 -2 2 C-1.34 1.34 -0.68 0.68 0 0 Z " fill="#07BBCD" transform="translate(729,75)"/>
<path d="M0 0 C0.90105469 0.11085937 1.80210937 0.22171875 2.73046875 0.3359375 C3.76107422 0.47902344 3.76107422 0.47902344 4.8125 0.625 C1.6375906 2.5328584 -0.29335211 2.7859041 -3.9375 2.25 C-4.73671875 2.13914063 -5.5359375 2.02828125 -6.359375 1.9140625 C-6.96265625 1.81867187 -7.5659375 1.72328125 -8.1875 1.625 C-4.73535147 -0.67643236 -3.95270676 -0.51333854 0 0 Z " fill="#043FB9" transform="translate(167.1875,57.375)"/>
<path d="M0 0 C-0.33 0.99 -0.66 1.98 -1 3 C-4.13349732 4.04449911 -4.98968256 3.93423645 -8 3 C-8 2.34 -8 1.68 -8 1 C-5.07175348 0.02391783 -3.04386724 -0.08226668 0 0 Z " fill="#042497" transform="translate(231,229)"/>
<path d="M0 0 C2.03144641 0.93446535 4.03533587 1.93224776 6 3 C6 3.99 6 4.98 6 6 C4.68 5.67 3.36 5.34 2 5 C2 4.34 2 3.68 2 3 C0.68 2.34 -0.64 1.68 -2 1 C-1.34 0.67 -0.68 0.34 0 0 Z " fill="#03A9C9" transform="translate(516,220)"/>
<path d="M0 0 C2 1 2 1 2.6328125 2.84765625 C2.79523437 3.57855469 2.95765625 4.30945313 3.125 5.0625 C3.29257812 5.79597656 3.46015625 6.52945313 3.6328125 7.28515625 C3.75398437 7.85105469 3.87515625 8.41695312 4 9 C3.34 9 2.68 9 2 9 C1.67 9.66 1.34 10.32 1 11 C0.67 7.37 0.34 3.74 0 0 Z " fill="#0CA9BB" transform="translate(763,108)"/>
<path d="M0 0 C2.97 0.495 2.97 0.495 6 1 C6 1.99 6 2.98 6 4 C4.35 4 2.7 4 1 4 C0.67 2.68 0.34 1.36 0 0 Z " fill="#0A2995" transform="translate(202,80)"/>
<path d="M0 0 C7.42857143 -0.28571429 7.42857143 -0.28571429 11 2 C6.70700357 3.26264601 4.12168689 2.62950412 0 1 C0 0.67 0 0.34 0 0 Z " fill="#05B1C9" transform="translate(651,20)"/>
<path d="M0 0 C0.99 0 1.98 0 3 0 C1.75023244 3.65316671 1.32901247 4.78065836 -2 7 C-1.125 2.25 -1.125 2.25 0 0 Z " fill="#00A3CA" transform="translate(728,251)"/>
<path d="M0 0 C-0.625 1.9375 -0.625 1.9375 -2 4 C-5.125 4.75 -5.125 4.75 -8 5 C-3.16129032 0 -3.16129032 0 0 0 Z " fill="#046D93" transform="translate(731,243)"/>
<path d="M0 0 C1.60080151 4.00200378 0.29279692 7.04556236 -1 11 C-1.33 11 -1.66 11 -2 11 C-2.25 3.375 -2.25 3.375 0 0 Z " fill="#041E8B" transform="translate(21,141)"/>
<path d="M0 0 C-3.44450737 2.29633824 -5.93812283 2.54016485 -10 3 C-8.0130571 -0.97388579 -3.91761109 -0.08705802 0 0 Z " fill="#0495B1" transform="translate(610,69)"/>
<path d="M0 0 C0.66 0.66 1.32 1.32 2 2 C1.34 2 0.68 2 0 2 C0 1.34 0 0.68 0 0 Z " fill="#0899B0" transform="translate(632,236)"/>
<path d="" fill="#05ABC3" transform="translate(0,0)"/>
<path d="M0 0 C2 1 2 1 2 1 Z " fill="#0597B1" transform="translate(644,235)"/>
<path d="M0 0 C2 1 2 1 2 1 Z " fill="#05389E" transform="translate(153,235)"/>
<path d="" fill="#066EBE" transform="translate(0,0)"/>
<path d="" fill="#0C3A98" transform="translate(0,0)"/>
<path d="M0 0 C2 1 2 1 2 1 Z " fill="#058FBB" transform="translate(476,59)"/>
<path d="M0 0 C2 1 2 1 2 1 Z " fill="#074EB2" transform="translate(84,35)"/>
<path d="" fill="#163F67" transform="translate(0,0)"/>
<path d="" fill="#0BAABB" transform="translate(0,0)"/>
<path d="" fill="#0BA7B9" transform="translate(0,0)"/>
<path d="" fill="#0CACBA" transform="translate(0,0)"/>
<path d="" fill="#093192" transform="translate(0,0)"/>
<path d="" fill="#0DABBB" transform="translate(0,0)"/>
<path d="" fill="#0A3194" transform="translate(0,0)"/>
<path d="" fill="#0C98B0" transform="translate(0,0)"/>
<path d="" fill="#0C338F" transform="translate(0,0)"/>
<path d="" fill="#0C348E" transform="translate(0,0)"/>
<path d="" fill="#093599" transform="translate(0,0)"/>
<path d="" fill="#0B3598" transform="translate(0,0)"/>
<path d="" fill="#04AEC5" transform="translate(0,0)"/>
<path d="" fill="#06A6BE" transform="translate(0,0)"/>
<path d="" fill="#0F9DAF" transform="translate(0,0)"/>
<path d="" fill="#02A7BF" transform="translate(0,0)"/>
<path d="" fill="#05AAC0" transform="translate(0,0)"/>
<path d="" fill="#04AFC1" transform="translate(0,0)"/>
<path d="" fill="#07A6BC" transform="translate(0,0)"/>
<path d="" fill="#0B3793" transform="translate(0,0)"/>
<path d="" fill="#04A8C0" transform="translate(0,0)"/>
<path d="" fill="#0D97AA" transform="translate(0,0)"/>
<path d="" fill="#06A8C3" transform="translate(0,0)"/>
<path d="" fill="#07B3C6" transform="translate(0,0)"/>
<path d="" fill="#04AAC1" transform="translate(0,0)"/>
<path d="" fill="#05A7BF" transform="translate(0,0)"/>
<path d="" fill="#01ADC3" transform="translate(0,0)"/>
<path d="" fill="#0D3691" transform="translate(0,0)"/>
<path d="" fill="#0C3697" transform="translate(0,0)"/>
<path d="" fill="#08AFC2" transform="translate(0,0)"/>
<path d="" fill="#069AB4" transform="translate(0,0)"/>
<path d="" fill="#0538A6" transform="translate(0,0)"/>
<path d="" fill="#0438A4" transform="translate(0,0)"/>
<path d="" fill="#0D9FB3" transform="translate(0,0)"/>
<path d="" fill="#099AB4" transform="translate(0,0)"/>
<path d="" fill="#0A97B0" transform="translate(0,0)"/>
<path d="" fill="#0838A6" transform="translate(0,0)"/>
<path d="" fill="#0838A6" transform="translate(0,0)"/>
<path d="" fill="#043AA4" transform="translate(0,0)"/>
<path d="" fill="#0A95B0" transform="translate(0,0)"/>
<path d="" fill="#09A0B7" transform="translate(0,0)"/>
<path d="" fill="#093B9D" transform="translate(0,0)"/>
<path d="" fill="#093BA1" transform="translate(0,0)"/>
<path d="" fill="#109DAF" transform="translate(0,0)"/>
<path d="" fill="#0E3A9E" transform="translate(0,0)"/>
<path d="" fill="#0B99B1" transform="translate(0,0)"/>
<path d="" fill="#0A3FA3" transform="translate(0,0)"/>
<path d="" fill="#0C3794" transform="translate(0,0)"/>
<path d="" fill="#109CAC" transform="translate(0,0)"/>
<path d="" fill="#0973BE" transform="translate(0,0)"/>
<path d="" fill="#043695" transform="translate(0,0)"/>
<path d="" fill="#086BC1" transform="translate(0,0)"/>
<path d="" fill="#0B5BB7" transform="translate(0,0)"/>
<path d="" fill="#0840A9" transform="translate(0,0)"/>
<path d="" fill="#0955B5" transform="translate(0,0)"/>
<path d="" fill="#063FA9" transform="translate(0,0)"/>
<path d="" fill="#123A93" transform="translate(0,0)"/>
<path d="" fill="#0742A8" transform="translate(0,0)"/>
<path d="" fill="#0C53B7" transform="translate(0,0)"/>
<path d="" fill="#1298A8" transform="translate(0,0)"/>
<path d="" fill="#094CB3" transform="translate(0,0)"/>
<path d="" fill="#0550B8" transform="translate(0,0)"/>
<path d="" fill="#1198A8" transform="translate(0,0)"/>
<path d="" fill="#09AFC0" transform="translate(0,0)"/>
<path d="" fill="#0673C2" transform="translate(0,0)"/>
<path d="" fill="#1097A8" transform="translate(0,0)"/>
<path d="" fill="#0764C7" transform="translate(0,0)"/>
<path d="" fill="#06B2C9" transform="translate(0,0)"/>
<path d="" fill="#05B5C8" transform="translate(0,0)"/>
<path d="" fill="#07B6C8" transform="translate(0,0)"/>
<path d="" fill="#0477C9" transform="translate(0,0)"/>
<path d="" fill="#0770B4" transform="translate(0,0)"/>
<path d="" fill="#1296AD" transform="translate(0,0)"/>
<path d="" fill="#0765BB" transform="translate(0,0)"/>
<path d="" fill="#0737A3" transform="translate(0,0)"/>
<path d="" fill="#134192" transform="translate(0,0)"/>
<path d="" fill="#109CAF" transform="translate(0,0)"/>
<path d="" fill="#0E3F97" transform="translate(0,0)"/>
<path d="" fill="#0F3F98" transform="translate(0,0)"/>
<path d="" fill="#09C0CE" transform="translate(0,0)"/>
<path d="" fill="#04C6D2" transform="translate(0,0)"/>
<path d="" fill="#119EB1" transform="translate(0,0)"/>
<path d="" fill="#08C0CF" transform="translate(0,0)"/>
<path d="" fill="#0FB8C4" transform="translate(0,0)"/>
<path d="" fill="#0A58BF" transform="translate(0,0)"/>
<path d="" fill="#0A43A7" transform="translate(0,0)"/>
<path d="" fill="#0BA6BA" transform="translate(0,0)"/>
<path d="" fill="#099CBA" transform="translate(0,0)"/>
<path d="" fill="#0E4DAE" transform="translate(0,0)"/>
<path d="" fill="#0EA8BC" transform="translate(0,0)"/>
<path d="" fill="#06CEDB" transform="translate(0,0)"/>
<path d="" fill="#06CCDB" transform="translate(0,0)"/>
<path d="" fill="#07CBD8" transform="translate(0,0)"/>
<path d="" fill="#0443B1" transform="translate(0,0)"/>
<path d="" fill="#08A7C3" transform="translate(0,0)"/>
<path d="" fill="#05CEDE" transform="translate(0,0)"/>
<path d="" fill="#0A4BB7" transform="translate(0,0)"/>
<path d="" fill="#08D1DC" transform="translate(0,0)"/>
<path d="" fill="#078AB9" transform="translate(0,0)"/>
<path d="" fill="#0783B9" transform="translate(0,0)"/>
<path d="" fill="#08CAD8" transform="translate(0,0)"/>
<path d="" fill="#06CAD9" transform="translate(0,0)"/>
<path d="" fill="#0B84B7" transform="translate(0,0)"/>
<path d="" fill="#086FCC" transform="translate(0,0)"/>
<path d="" fill="#0B6CCB" transform="translate(0,0)"/>
<path d="" fill="#0A6CC7" transform="translate(0,0)"/>
<path d="" fill="#0B68C5" transform="translate(0,0)"/>
<path d="" fill="#08A1C1" transform="translate(0,0)"/>
<path d="" fill="#0969C7" transform="translate(0,0)"/>
<path d="" fill="#0FC0CD" transform="translate(0,0)"/>
<path d="" fill="#0EC0D0" transform="translate(0,0)"/>
<path d="" fill="#1153B3" transform="translate(0,0)"/>
<path d="" fill="#11BECC" transform="translate(0,0)"/>
<path d="" fill="#11BDCE" transform="translate(0,0)"/>
<path d="" fill="#095EC1" transform="translate(0,0)"/>
<path d="" fill="#0C59BC" transform="translate(0,0)"/>
<path d="" fill="#11AEC0" transform="translate(0,0)"/>
<path d="" fill="#1552A7" transform="translate(0,0)"/>
<path d="" fill="#175676" transform="translate(0,0)"/>
</svg>
